<svg xmlns="http://www.w3.org/2000/svg" xmlns:xlink="http://www.w3.org/1999/xlink" width="512" height="512" viewBox="0 0 512 512" fill="none"><defs><rect id="path_0" x="0" y="0" width="512" height="512" /><linearGradient id="linear_0" x1="50%" y1="50%" x2="-24.831169843673706%" y2="50.51453989560003%" gradientUnits="objectBoundingBox"><stop offset="0" stop-color="#FFFFFF" stop-opacity="0.01" /><stop offset="1" stop-color="#A2C1F2" stop-opacity="1" /></linearGradient></defs><g opacity="1" transform="translate(0 0)  rotate(0 256 256)"><rect fill="#FFFFFF" opacity="1" transform="translate(0 0)  rotate(0 256 256)" x="0" y="0" width="512" height="512" /><mask id="bg-mask-0" fill="white"><use xlink:href="#path_0"></use></mask><g mask="url(#bg-mask-0)" ><path id="路径 113" fill-rule="evenodd" fill="url(#linear_0)" transform="translate(208.35352690461696 318.81929004467634)  rotate(45 218.67791748046872 112.01812194365606)" opacity="1" d="M4.59 224.04L5.29 178.53L0 1.69L437.36 0L419.96 219.64L4.59 224.04Z" /><path id="路径 1" fill-rule="evenodd" style="fill:#073042" transform="translate(337 99)  rotate(0 62.00000000000004 157.4878995628795)" opacity="1" d="M79.5,210.5C78.6,203.75 76.5,188 86.5,179C96.5,170 116.5,169.33 124,170L124,144C116.2,143.25 98,141.5 88.5,133.5C79,125.5 79.5,124 79.5,112C79.5,100 84.5,86 85.5,76.5C86.5,67 88,38 77.5,25C67,12 66,10 56.5,5.5C47,1 33.5,0 25,0C16.5,0 5.01,2.1 1,3L3,27.5C13.05,26.3 36.5,23.5 45.5,31C54.5,38.5 56.58,48.51 56.5,52C56.65,59.95 57,78.5 54.5,84C52,89.5 50.06,101.81 49.5,106.5C48.6,113.7 46.5,130.5 59,141.5C71.5,152.5 87.84,154.38 93.5,154L93.5,159C87.2,159.3 72.5,160 60.5,169.5C48.5,179 48.65,201.76 50,210.5C52.55,221.3 58.5,246.5 56.5,261.5C54.5,276.5 45.95,284.63 42.5,286.5C40.1,287.85 34.5,291 28.5,291C22.5,291 8.75,288.9 3.5,288L0,313C17.7,315.25 59,320.5 75,294C91,267.5 84.15,225.61 79.5,210.5Z " /><path id="路径 1" fill-rule="evenodd" style="fill:#073042" transform="translate(52 99)  rotate(0 62.00000000000004 157.4878995628795)" opacity="1" d="M30.5,159L30.5,154C36.16,154.38 52.5,152.5 65,141.5C77.5,130.5 75.4,113.7 74.5,106.5C73.94,101.81 72,89.5 69.5,84C67,78.5 67.35,59.95 67.5,52C67.43,48.51 69.5,38.5 78.5,31C87.5,23.5 110.95,26.3 121,27.5L123,3C118.99,2.1 107.5,0 99,0C90.5,0 77,1 67.5,5.5C58,10 57,12 46.5,25C36,38 37.5,67 38.5,76.5C39.5,86 44.5,100 44.5,112C44.5,124 45,125.5 35.5,133.5C26,141.5 7.8,143.25 0,144L0,170C7.5,169.33 27.5,170 37.5,179C47.5,188 45.4,203.75 44.5,210.5C39.85,225.61 33,267.5 49,294C65,320.5 106.3,315.25 124,313L120.5,288C115.25,288.9 101.5,291 95.5,291C89.5,291 83.9,287.85 81.5,286.5C78.05,284.63 69.5,276.5 67.5,261.5C65.5,246.5 71.45,221.3 74,210.5C75.35,201.76 75.5,179 63.5,169.5C51.5,160 36.8,159.3 30.5,159Z " /><path id="圆形 2" fill-rule="evenodd" style="fill:#3DDC84" transform="translate(157.96152422706632 165.96152422706632)  rotate(60 60 60)" opacity="1" d="M60,0C26.86,0 0,26.86 0,60C0,93.14 26.86,120 60,120C93.14,120 120,93.14 120,60C120,26.86 93.14,0 60,0Z " /><path id="矩形 1" fill-rule="evenodd" style="fill:#3DDC84" transform="translate(202.96152422706632 191.94228634059937)  rotate(60 30 60)" opacity="1" d="M0,120L60,120L60,0L0,0L0,120Z " /><path id="圆形 1" fill-rule="evenodd" style="fill:#4285F4" transform="translate(171 198)  rotate(0 90 90)" opacity="1" d="M90,0C40.29,0 0,40.29 0,90C0,139.71 40.29,180 90,180C139.71,180 180,139.71 180,90C180,40.29 139.71,0 90,0Z " /><path id="圆形 1" fill-rule="evenodd" style="fill:#4285F4" transform="translate(312 193)  rotate(0 25 25)" opacity="1" d="M25,0C11.19,0 0,11.19 0,25C0,38.81 11.19,50 25,50C38.81,50 50,38.81 50,25C50,11.19 38.81,0 25,0Z " /><path id="圆形 1" fill-rule="evenodd" style="fill:#FFFFFF" transform="translate(275 226)  rotate(0 25 25)" opacity="1" d="M25,0C11.19,0 0,11.19 0,25C0,38.81 11.19,50 25,50C38.81,50 50,38.81 50,25C50,11.19 38.81,0 25,0Z " /><path id="路径 2" fill-rule="evenodd" style="fill:#FFFFFF" transform="translate(210 281)  rotate(0 56.75 27.07544610745857)" opacity="1" d="M0 53L31 53L31 46L8.5 46L8.5 0L0 0L0 53ZM103 13C103 13 93 11 83.5 17.5L86.5 23C89.05 21.5 95 18 100 19.5C100.75 19.65 102.5 20 104 22C105.5 24 105.61 26.6 105.5 27.5C100.55 28.25 89 30 85.5 34C82 38 80 43.5 84 50C88 56.5 98.44 54.04 102 51.5C102 51.5 105.5 49 106 48.5L106.5 48.5L107 53L113.5 53L113.5 27.5C113.35 23.75 113 15 103 13ZM50 54C41 54 38.93 46.3 39 43L39 13.5L47 13.55L47 39C47.15 40.8 47.5 45 50.5 46C53.5 47 56.52 46.37 57.5 46C58.25 45.7 60 45 61.5 43C63 41 63.11 40.15 63 40L63 13.5L71.5 13.5L71.5 53L65 53L64 47C62.5 49.1 59 54 50 54ZM105.5 43C102.2 45.25 94.5 50.5 91 45.5C87.5 40.5 92 36.5 95.5 35.5C99 34.5 103.81 33.37 105.5 33L105.5 43Z" /><path id="路径 1" fill-rule="evenodd" style="fill:#3DDC84" transform="translate(156 276)  rotate(0 30.929991731672416 43.318460244454236)" opacity="1" d="M43.8,85.97C47.72,87.25 53.08,86.92 56.8,82.97C64.8,74.47 61.3,66.07 59.8,62.47L27.8,6.97L24.3,2.97C21.26,0.91 12.8,-2.53 5.3,2.97C-2.2,8.47 0.1,17.57 1.3,21.47L27.8,67.97L34.3,78.47C36.3,80.9 39.27,84.5 43.8,85.97Z " /><path id="路径 1" fill-rule="evenodd" style="fill:#3DDC84" transform="translate(294 198)  rotate(0 30.929991731672416 43.318460244454236)" opacity="1" d="M43.8,85.97C47.72,87.25 53.08,86.92 56.8,82.97C64.8,74.47 61.3,66.07 59.8,62.47L27.8,6.97L24.3,2.97C21.26,0.91 12.8,-2.53 5.3,2.97C-2.2,8.47 0.1,17.57 1.3,21.47L27.8,67.97L34.3,78.47C36.3,80.9 39.27,84.5 43.8,85.97Z " /><path id="圆形 2" fill-rule="evenodd" style="fill:#FFFFFF" transform="translate(177.8301270189222 208.8301270189222)  rotate(-30 5 5)" opacity="1" d="M5,0C2.24,0 0,2.24 0,5C0,7.76 2.24,10 5,10C7.76,10 10,7.76 10,5C10,2.24 7.76,0 5,0Z " /><path id="圆形 2" fill-rule="evenodd" style="fill:#FFFFFF" transform="translate(219.8301270189222 184.8301270189222)  rotate(-30 5 5)" opacity="1" d="M5,0C2.24,0 0,2.24 0,5C0,7.76 2.24,10 5,10C7.76,10 10,7.76 10,5C10,2.24 7.76,0 5,0Z " /><path id="矩形 1" fill-rule="evenodd" style="fill:#3DDC84" transform="translate(151.24038105676664 181.79903810567657)  rotate(-60 1.5 15)" opacity="1" d="M1.5,30L1.5,30C1.9,30 2.28,29.84 2.56,29.56C2.84,29.28 3,28.9 3,28.5L3,1.5C3,1.1 2.84,0.72 2.56,0.44C2.28,0.16 1.9,0 1.5,0L1.5,0C1.1,0 0.72,0.16 0.44,0.44C0.16,0.72 0,1.1 0,1.5L0,28.5C0,28.9 0.16,29.28 0.44,29.56C0.72,29.84 1.1,30 1.5,30Z " /><path id="矩形 1" fill-rule="evenodd" style="fill:#3DDC84" transform="translate(217 144)  rotate(0 1.5 15)" opacity="1" d="M0,1.5L0,28.5C0,28.9 0.16,29.28 0.44,29.56C0.72,29.84 1.1,30 1.5,30L1.5,30C1.9,30 2.28,29.84 2.56,29.56C2.84,29.28 3,28.9 3,28.5L3,1.5C3,1.1 2.84,0.72 2.56,0.44C2.28,0.16 1.9,0 1.5,0L1.5,0C1.1,0 0.72,0.16 0.44,0.44C0.16,0.72 0,1.1 0,1.5Z " /></g></g></svg>