<svg xmlns="http://www.w3.org/2000/svg" xmlns:xlink="http://www.w3.org/1999/xlink" width="512" height="512" viewBox="0 0 512 512">
  <defs>
    <linearGradient id="linear-gradient" x1="0.637" y1="0.503" x2="-0.065" y2="0.576" gradientUnits="objectBoundingBox">
      <stop offset="0" stop-color="#ffd600" stop-opacity="0"/>
      <stop offset="1" stop-color="#e2be00"/>
    </linearGradient>
    <clipPath id="clip-画板">
      <rect width="512" height="512"/>
    </clipPath>
  </defs>
  <g id="画板" clip-path="url(#clip-画板)">
    <rect width="512" height="512" fill="#ffd600"/>
    <rect id="矩形_40" data-name="矩形 40" width="411" height="301" transform="translate(364.088 152.149) rotate(45)" fill="url(#linear-gradient)"/>
    <circle id="椭圆_26" data-name="椭圆 26" cx="150" cy="150" r="150" transform="translate(106 106)" fill="#fff"/>
    <path id="交叉_3" data-name="交叉 3" d="M-1622.646-353.937c-14.213-2.371-27.952-5.272-40.885-8.628a149.791,149.791,0,0,1,21.7-38.979C-1605.392-394.023-1564.528-390-1523-390s82.393-4.024,118.836-11.545a149.791,149.791,0,0,1,21.7,38.979c-12.933,3.357-26.672,6.257-40.885,8.628A607.707,607.707,0,0,1-1523-346,607.7,607.7,0,0,1-1622.646-353.937Z" transform="translate(1779 566)" fill="#ec6626"/>
    <path id="路径_53" data-name="路径 53" d="M1985.95,951.124s7.843-16.664,44.892-16.879,46.126,16.879,46.126,16.879" transform="translate(-1775.46 -589)" fill="none" stroke="#904716" stroke-width="10"/>
    <g id="组_9" data-name="组 9" transform="translate(6.37 1)">
      <path id="路径_56" data-name="路径 56" d="M1942.3,838.568l62.254,12.825s-4.153,43.154-37.284,15.9S1942.3,838.568,1942.3,838.568Z" transform="translate(-1790.854 -592)" fill="#b4b4b4"/>
      <path id="路径_57" data-name="路径 57" d="M2003.666,838.568l-62.254,12.825s4.153,43.154,37.284,15.9S2003.666,838.568,2003.666,838.568Z" transform="translate(-1655.854 -592)" fill="#b4b4b4"/>
    </g>
    <path id="路径_58" data-name="路径 58" d="M2153.4,757.362l3.446-28s13.522,1.558,19.123,17.928-8.54,28.933-8.54,28.933a18.436,18.436,0,0,1,12.873-7.01c4.074-.4,11.524-1.4,17.005,7.01.376,4.013-2.254,7.094-5.1,9.727a39.664,39.664,0,0,1-7.645,5.461,38.111,38.111,0,0,1-10.272,4.08" transform="translate(-1779 -592)" fill="#d86026"/>
  </g>
</svg>
