<svg xmlns="http://www.w3.org/2000/svg" xmlns:xlink="http://www.w3.org/1999/xlink" width="512" height="512" viewBox="0 0 512 512">
  <defs>
    <linearGradient id="linear-gradient" x1="0.742" y1="0.547" x2="-0.146" y2="0.521" gradientUnits="objectBoundingBox">
      <stop offset="0" stop-color="#fff" stop-opacity="0"/>
      <stop offset="1" stop-color="#91b0f5"/>
    </linearGradient>
    <linearGradient id="linear-gradient-2" x1="0.565" y1="0.483" x2="0.022" y2="0.552" gradientUnits="objectBoundingBox">
      <stop offset="0" stop-color="#e3e3e3" stop-opacity="0"/>
      <stop offset="1" stop-color="#ffedbf"/>
    </linearGradient>
    <filter id="减去_2" x="92" y="92" width="334.501" height="334.5" filterUnits="userSpaceOnUse">
      <feOffset dx="5" dy="5" input="SourceAlpha"/>
      <feGaussianBlur stdDeviation="0.5" result="blur"/>
      <feFlood flood-color="#2060ec"/>
      <feComposite operator="in" in2="blur"/>
      <feComposite in="SourceGraphic"/>
    </filter>
    <clipPath id="clip-IU浏览器">
      <rect width="512" height="512"/>
    </clipPath>
  </defs>
  <g id="IU浏览器" clip-path="url(#clip-IU浏览器)">
    <rect width="512" height="512" fill="#f5f5f5"/>
    <path id="路径_7" data-name="路径 7" d="M0,0,324.311,9.232l27.043,322.751L0,325.916,46.553,286.99,111.1,260.881l21.949-127.833L84.991,55.639Z" transform="translate(385.555 155.688) rotate(45)" fill="url(#linear-gradient)"/>
    <path id="路径_5" data-name="路径 5" d="M-39.009,2.455,202.943,0V166L8.579,167.648-41.871,88.464l-4.059-51.477Z" transform="translate(257.762 165.39) rotate(45)" fill="url(#linear-gradient-2)"/>
    <g id="组件_2_1" data-name="组件 2 – 1" transform="translate(92 92)">
      <g transform="matrix(1, 0, 0, 1, -92, -92)" filter="url(#减去_2)">
        <path id="减去_2-2" data-name="减去 2" d="M-534,246a165.218,165.218,0,0,1-33.052-3.332,163.181,163.181,0,0,1-30.785-9.556,164.019,164.019,0,0,1-27.858-15.121,165.174,165.174,0,0,1-24.272-20.026,165.175,165.175,0,0,1-20.026-24.271,164.012,164.012,0,0,1-15.121-27.858,163.168,163.168,0,0,1-9.556-30.785A165.212,165.212,0,0,1-698,82a165.209,165.209,0,0,1,3.332-33.052,163.168,163.168,0,0,1,9.556-30.784A164.012,164.012,0,0,1-669.992-9.694a165.175,165.175,0,0,1,20.026-24.272,165.176,165.176,0,0,1,24.272-20.026,164.015,164.015,0,0,1,27.858-15.121,163.178,163.178,0,0,1,30.785-9.556A165.213,165.213,0,0,1-534-82a165.211,165.211,0,0,1,33.052,3.332,163.174,163.174,0,0,1,30.784,9.556,164.015,164.015,0,0,1,27.858,15.121,165.178,165.178,0,0,1,24.272,20.026A165.181,165.181,0,0,1-398.009-9.694a164.012,164.012,0,0,1,15.121,27.858,163.176,163.176,0,0,1,9.556,30.784A165.21,165.21,0,0,1-370,82a165.213,165.213,0,0,1-3.332,33.052,163.176,163.176,0,0,1-9.556,30.785,164.013,164.013,0,0,1-15.121,27.858,165.174,165.174,0,0,1-20.026,24.271,165.177,165.177,0,0,1-24.272,20.026,164.013,164.013,0,0,1-27.858,15.121,163.18,163.18,0,0,1-30.784,9.556A165.215,165.215,0,0,1-534,246Zm.5-298C-607.664-52-668,8.336-668,82.5S-607.664,217-533.5,217-399,156.664-399,82.5-459.336-52-533.5-52Z" transform="translate(790 174)" fill="#2060ec"/>
      </g>
    </g>
    <path id="路径_4" data-name="路径 4" d="M-606,133c0-20.338-2.526-45.8,31.948-81.351s79.721-38.783,86.9-37.347c3.742.748,5.49,1.063,6.9,2.969.957,1.269,1.72,4,1.72,7.445,0,7.182.539,10.594,0,14.9a5.692,5.692,0,0,1-2.374,4.131,15.938,15.938,0,0,1-2.942,1.961,12.494,12.494,0,0,1-3.678.9s-29.61-3.042-57.441,22.455S-574.052,133-574.052,133s.8,5.495-8.607,7.225C-588.747,141.349-606,141.4-606,133Z" transform="translate(688.664 -7.443) rotate(-16)" fill="#f5b822"/>
  </g>
</svg>
