<svg xmlns="http://www.w3.org/2000/svg" xmlns:xlink="http://www.w3.org/1999/xlink" width="512" height="512" viewBox="0 0 512 512">
  <defs>
    <linearGradient id="linear-gradient" x1="0.992" y1="0.508" x2="0.021" y2="0.531" gradientUnits="objectBoundingBox">
      <stop offset="0" stop-opacity="0"/>
      <stop offset="1" stop-color="#2d2d2d"/>
    </linearGradient>
    <linearGradient id="linear-gradient-2" x1="0.992" y1="0.508" x2="0.021" y2="0.531" gradientUnits="objectBoundingBox">
      <stop offset="0" stop-opacity="0"/>
      <stop offset="1" stop-color="#333"/>
    </linearGradient>
    <clipPath id="clip-Maybe">
      <rect width="512" height="512"/>
    </clipPath>
  </defs>
  <g id="Maybe" clip-path="url(#clip-Maybe)">
    <rect width="512" height="512"/>
    <path id="路径_62" data-name="路径 62" d="M0,0H90l6.613,174.258L-16.033,176.7,48.091,93.611Z" transform="translate(412.979 200.381) rotate(45)" fill="url(#linear-gradient)"/>
    <path id="路径_63" data-name="路径 63" d="M-.595,0H88.58l9.711,188.877-130.637,3.342-32.493-89.557L7.443,127.39Z" transform="translate(258.857 201.638) rotate(45)" fill="url(#linear-gradient-2)"/>
    <path id="排除_8" data-name="排除 8" d="M-1635.036-1066.78h-34.609l9.594-59.641-30.563,52.034h-30.809l-15.405-50.04-7.6,57.644H-1779l15.385-105.592-7.844-7.625h50l21.187,71.015,40.188-71h40.453l-15.406,113.2Zm143.69-.084h-110.3l13.429-105.512-5.808-7.623h128.784l-5.78,46-11.657,7.578,9.625,7.828-5.782,38.469a22.534,22.534,0,0,1-1.159,3.367,17.108,17.108,0,0,1-3.987,5.89A16.8,16.8,0,0,1-1491.347-1066.865Zm-66.111-49.932-3.782,30.828h46.032l3.741-30.781-45.992-.047Zm51.844-44.016-46,.076-2.013,24.753h44.2l3.812-24.828Z" transform="translate(1878.146 1380.797)" fill="#fff"/>
  </g>
</svg>
