<svg xmlns="http://www.w3.org/2000/svg" xmlns:xlink="http://www.w3.org/1999/xlink" width="512" height="512" viewBox="0 0 512 512">
  <defs>
    <linearGradient id="linear-gradient" x1="0.825" y1="0.173" x2="-1.169" y2="1.081" gradientUnits="objectBoundingBox">
      <stop offset="0" stop-color="#0f894e" stop-opacity="0"/>
      <stop offset="1" stop-color="#bc443a"/>
    </linearGradient>
    <clipPath id="clip-MT浏览器">
      <rect width="512" height="512"/>
    </clipPath>
  </defs>
  <g id="MT浏览器" clip-path="url(#clip-MT浏览器)">
    <rect width="512" height="512" fill="#dd5044"/>
    <rect id="矩形_58" data-name="矩形 58" width="256" height="512" transform="translate(256)" fill="#0f894e"/>
    <path id="路径_126" data-name="路径 126" d="M0,0,436.9-.16l81.782,465.272L117.293,440l-16.357-30.146,64.974-139.019L-29.931,294.927,108.119,100.962,58.387,51.23-4.054,36.311Z" transform="translate(357.743 68.023) rotate(45)" fill="url(#linear-gradient)"/>
    <g id="组_17" data-name="组 17" transform="translate(-860.741 -3426.542)">
      <path id="减去_16" data-name="减去 16" d="M248.458,411.439H0V370.332l202.513-82.215L0,205.3V100.57A65.712,65.712,0,0,1,1.915,88.941,72.638,72.638,0,0,1,5.739,77.62a59.709,59.709,0,0,1,7.006-12.133,138.941,138.941,0,0,1,13.4-15.681,32.36,32.36,0,0,1,4.485-3.856L12.745,20.911,40.811,0,60.622,26.415l0,0a11.31,11.31,0,0,1,2.264-1.767,39.133,39.133,0,0,1,8.7-3.9,101.645,101.645,0,0,1,17.986-3.9A228.243,228.243,0,0,1,119.7,15.079a252.454,252.454,0,0,1,31.14,1.771,142.62,142.62,0,0,1,20.218,3.9c10.076,2.8,14.172,5.64,14.212,5.668L200.4,0l29.716,17.335L215.81,45.951l.012.008c.455.356,2.892,2.289,6.221,5.405a115.645,115.645,0,0,1,12.836,14.123,42.458,42.458,0,0,1,5.551,10.827,102.241,102.241,0,0,1,3.626,12.5,147.248,147.248,0,0,1,2.573,14.618v91.1l-197.563-2.2,197.563,78.121v36.53L57.871,383.017H248.458v28.42ZM121.42,43.474c-34.317,0-60.3,8.72-77.235,25.911a70.267,70.267,0,0,0-17.541,30.668A60.987,60.987,0,0,0,24.3,115.291v47.051H223.79V115.291a56.862,56.862,0,0,0-2.016-11.183,75.981,75.981,0,0,0-11.845-24.622c-11.956-16.35-36.92-35.869-87.947-36.012h-.562Z" transform="translate(988.474 3476.823)" fill="#fff"/>
      <circle id="椭圆_54" data-name="椭圆 54" cx="23" cy="23" r="23" transform="translate(1048 3561)" fill="#fff"/>
      <circle id="椭圆_55" data-name="椭圆 55" cx="23" cy="23" r="23" transform="translate(1130 3561)" fill="#fff"/>
    </g>
  </g>
</svg>
