<svg xmlns="http://www.w3.org/2000/svg" xmlns:xlink="http://www.w3.org/1999/xlink" width="512" height="512" viewBox="0 0 512 512" fill="none"><defs><rect id="path_0" x="0" y="0" width="512" height="512" /></defs><g opacity="1" transform="translate(0 0)  rotate(0 256 256)"><rect fill="#FFFFFF" opacity="1" transform="translate(0 0)  rotate(0 256 256)" x="0" y="0" width="512" height="512" /><mask id="bg-mask-0" fill="white"><use xlink:href="#path_0"></use></mask><g mask="url(#bg-mask-0)" ><path id="路径 1" fill-rule="evenodd" style="fill:#000000" transform="translate(60.5 201)  rotate(0 198.25000000000003 57.50000000000001)" opacity="1" d="M83.5 113.5L44.5 44.5L35 113.5L0 113.5L16 7.5L8.5 0L54.5 0L94.5 71L104 0L137 0L121.5 113.5L83.5 113.5ZM216 59.5L219.5 43L199.5 43L201.5 28.5L165.5 28.5L169 33.5L167.5 43L154.5 43L152.5 59.5L165.5 59.5L159 105C159.15 106.35 159.5 109.5 161.5 111.5C163.5 113.5 166.8 114.7 168 115L204.5 115L208 98.5L192 98.5L197.5 59.5L216 59.5ZM378.5 28.5L376.5 43L396.5 43L393 59.5L374.5 59.5L368.5 99L385 99L382 115L346 115C344.65 114.85 341.5 114.5 339 112.5C336.5 110.5 335.96 106.5 336 105L342.5 59.5L329.5 59.5L331 43L344.5 43L346 33.5L342.5 28.5L378.5 28.5ZM289.5 79L319.5 43L283.5 43L285 46.5L276 58L269 43L234.5 43L239.5 49L256.5 79L226 115L257.5 115L270 101.5L277 115L310 115L289.5 79Z" /></g></g></svg>