<svg xmlns="http://www.w3.org/2000/svg" xmlns:xlink="http://www.w3.org/1999/xlink" width="512" height="512" viewBox="0 0 512 512">
  <defs>
    <linearGradient id="linear-gradient" x1="0.732" y1="0.542" x2="0.017" y2="0.541" gradientUnits="objectBoundingBox">
      <stop offset="0" stop-color="#0090ff" stop-opacity="0"/>
      <stop offset="1" stop-color="#0382e5"/>
    </linearGradient>
    <linearGradient id="linear-gradient-2" x1="0.792" y1="0.698" x2="0.265" y2="0.26" gradientUnits="objectBoundingBox">
      <stop offset="0" stop-color="#e9e9e9"/>
      <stop offset="1" stop-color="#c4c4c4"/>
    </linearGradient>
    <clipPath id="clip-ROAM">
      <rect width="512" height="512"/>
    </clipPath>
  </defs>
  <g id="ROAM" clip-path="url(#clip-ROAM)">
    <rect width="512" height="512" fill="#00b3ff"/>
    <path id="减去_8" data-name="减去 8" d="M-464.336-292a149.163,149.163,0,0,1-84.748-26.218l208.531-208.53A149.162,149.162,0,0,1-314.336-442a151.1,151.1,0,0,1-3.047,30.23,149.244,149.244,0,0,1-8.74,28.156,150.012,150.012,0,0,1-13.83,25.48,151.079,151.079,0,0,1-18.316,22.2,151.089,151.089,0,0,1-22.2,18.316,150.022,150.022,0,0,1-25.48,13.83,149.243,149.243,0,0,1-28.157,8.74A151.1,151.1,0,0,1-464.336-292Zm-123.783-65.252h0A149.164,149.164,0,0,1-614.336-442a151.109,151.109,0,0,1,3.047-30.23,149.237,149.237,0,0,1,8.74-28.157,150.022,150.022,0,0,1,13.83-25.48,151.083,151.083,0,0,1,18.316-22.2,151.083,151.083,0,0,1,22.2-18.316,150.014,150.014,0,0,1,25.48-13.83,149.237,149.237,0,0,1,28.157-8.74A151.11,151.11,0,0,1-464.336-592a149.163,149.163,0,0,1,84.748,26.218l-208.53,208.531Z" transform="matrix(0.966, 0.259, -0.259, 0.966, 590.116, 812.118)" fill="#fff"/>
    <path id="路径_47" data-name="路径 47" d="M.3.427,360.614,0V371.052l-402.425,0Z" transform="translate(406.004 145.596) rotate(45)" fill="url(#linear-gradient)"/>
    <rect id="矩形_33" data-name="矩形 33" width="55.203" height="370" transform="translate(406.082 145.596) rotate(60)" fill="#00a8ff"/>
    <path id="减去_9" data-name="减去 9" d="M-464.336-292c-19.242,0-35.928-2.8-51.01-8.546-16.005-6.1-31.969-16.508-33.736-17.674l65.87-65.869,143.78-143.342.011.014a126.813,126.813,0,0,1,6.591,10.931A175.429,175.429,0,0,1-320.4-487.74a125.376,125.376,0,0,1,4.695,23.567A202.2,202.2,0,0,1-314.336-442a151.108,151.108,0,0,1-3.047,30.23,149.242,149.242,0,0,1-8.74,28.156,150.01,150.01,0,0,1-13.83,25.48,151.078,151.078,0,0,1-18.316,22.2,151.084,151.084,0,0,1-22.2,18.316,150.02,150.02,0,0,1-25.48,13.83,149.244,149.244,0,0,1-28.156,8.74A151.1,151.1,0,0,1-464.336-292Z" transform="matrix(0.966, 0.259, -0.259, 0.966, 589.685, 812.118)" fill="url(#linear-gradient-2)"/>
  </g>
</svg>
