<svg xmlns="http://www.w3.org/2000/svg" xmlns:xlink="http://www.w3.org/1999/xlink" width="512" height="512" viewBox="0 0 512 512">
  <defs>
    <linearGradient id="linear-gradient" x1="0.84" y1="0.505" x2="0.042" y2="0.537" gradientUnits="objectBoundingBox">
      <stop offset="0" stop-color="#0090ff" stop-opacity="0"/>
      <stop offset="1" stop-color="#057ad6"/>
    </linearGradient>
    <clipPath id="clip-UYS">
      <rect width="512" height="512"/>
    </clipPath>
  </defs>
  <g id="AAAA" clip-path="url(#clip-UYS)">
    <rect width="512" height="512" fill="#0090ff"/>
    <path id="路径_13" data-name="路径 13" d="M17.4,136.012,18.943,2.186,404.4,0V381.706H0L139.694,172.16Z" transform="translate(376.003 150.094) rotate(45)" fill="url(#linear-gradient)"/>
    <path id="路径_14" data-name="路径 14" d="M22,4.716l5.78-.761,19.4,18.3H0Z" transform="translate(358.825 157.747)" fill="#b9b9b9"/>
    <path id="路径_15" data-name="路径 15" d="M26.631,4.716l-6.115-.761L0,22.253H49.9Z" transform="translate(106.097 157.747)" fill="#b9b9b9"/>
    <rect id="矩形_18" data-name="矩形 18" width="260" height="40" transform="translate(126 162)" fill="#d6d6d6"/>
    <path id="减去_4" data-name="减去 4" d="M-33,1186H267v240H-33Z" transform="translate(139 -1006)" fill="#fff"/>
    <rect id="矩形_24" data-name="矩形 24" width="28" height="43" transform="translate(166 137)" fill="#fff"/>
    <rect id="矩形_25" data-name="矩形 25" width="28" height="43" transform="translate(326 137)" fill="#fff"/>
    <rect id="矩形_26" data-name="矩形 26" width="188" height="28" transform="translate(166 109)" fill="#fff"/>
    <rect id="矩形_27" data-name="矩形 27" width="28" height="43" transform="translate(166 137)" fill="#fff"/>
    <rect id="矩形_28" data-name="矩形 28" width="28" height="43" transform="translate(326 137)" fill="#fff"/>
    <rect id="矩形_29" data-name="矩形 29" width="188" height="28" transform="translate(166 109)" fill="#fff"/>
    <rect id="矩形_30" data-name="矩形 30" width="9" height="25" transform="translate(194 137)" fill="#b9b9b9"/>
    <g id="组_4" data-name="组 4" transform="translate(-1186 -346)">
      <circle id="椭圆_20" data-name="椭圆 20" cx="50" cy="50" r="50" transform="translate(1316 602)" fill="#0075cf"/>
      <path id="路径_36" data-name="路径 36" d="M30,0A30,30,0,1,1,0,30,30,30,0,0,1,30,0Z" transform="translate(1336 622)" fill="#fff"/>
    </g>
    <g id="组_20" data-name="组 20" transform="translate(-8.554 -4.661)">
      <path id="路径_158" data-name="路径 158" d="M316.529,881.956a3.342,3.342,0,0,1,2.747,0c.637.273,1.456.328,1.328,2.056s-.091,3.53-.091,3.53v24.608s-.683,7.441,8.542,8.087a10.746,10.746,0,0,0,11.469-7.379,16.384,16.384,0,0,0,.707-5.9c-.154-3.6,0-19.992-.123-22.941s.277-2.334,1.6-2.488a3.193,3.193,0,0,1,2.706,1.261c.092.307,0,5.75,0,5.75l-.157,23.148s-1.325,12.24-15.495,12.24S316.4,912.149,316.4,912.149l-.131-27.406S315.771,882.47,316.529,881.956Z" transform="translate(-33 -591.975)" fill="#0075cf"/>
      <path id="路径_159" data-name="路径 159" d="M351.823,882.367s4.115,7.048,4.541,7.687,7.119,11.8,7.119,11.8l12.039-19.442s.355-1.017,1.916-.828a6.23,6.23,0,0,1,2.625.946s.52.544,0,.922a19.615,19.615,0,0,0-2.01,2.6l-3.761,5.48s-3.9,6.026-4.581,7.226-4.151,7.01-4.151,7.01-.031,10.546,0,11.53.215,5.1.215,5.1.584,1.322-1.753.953-2.706-1.261-2.706-1.261-.092.769,0-2.275,0-14.052,0-14.052-6.4-11.223-7.9-13.314-4.182-6.488-5.258-7.748-1.291-2.074.154-2.344a11.34,11.34,0,0,1,2.429-.423A1.666,1.666,0,0,1,351.823,882.367Z" transform="translate(-27.874 -591.966)" fill="#0075cf"/>
      <path id="路径_160" data-name="路径 160" d="M381.631,914.061s3.118,5.144,8,5.768,6.547.26,6.547.26,4.521-.935,6.651-3.43a6.979,6.979,0,0,0,1.871-4.885,8.18,8.18,0,0,0-1.611-4.833c-1.767-2.494-6.236-3.741-6.236-3.741s-10.029-2.442-12.939-4.209a7.629,7.629,0,0,1-3.454-6.715,10.613,10.613,0,0,1,4.52-7.994,16.842,16.842,0,0,1,8.763-2.921,20.637,20.637,0,0,1,7.164,1.107,18.9,18.9,0,0,1,3.659,1.814,5.919,5.919,0,0,1,1.968,2.122,4.564,4.564,0,0,1-.307,2.952s-.83,2-2.183,0-5.381-4-7.5-4.151-3.536-.769-7.933,1.384a6.665,6.665,0,0,0-3.936,6.426s-.43,2.491,4.674,4.3,5.012,1.015,10.946,2.983a12.184,12.184,0,0,1,7.625,6.641,12.671,12.671,0,0,1,.338,8.026c-1.23,4.674-5.043,7.564-11.653,8.732a21.564,21.564,0,0,1-12.453-1.906,35.788,35.788,0,0,1-4.95-3.782,2.166,2.166,0,0,1,0-3.044c.553-.615.43-.861,1.2-1.353S381.631,914.061,381.631,914.061Z" transform="translate(-22.73 -592)" fill="#0075cf"/>
    </g>
  </g>
</svg>
