<svg xmlns="http://www.w3.org/2000/svg" xmlns:xlink="http://www.w3.org/1999/xlink" width="512" height="512" viewBox="0 0 512 512">
  <defs>
    <linearGradient id="linear-gradient" x1="0.213" y1="0.595" x2="1.069" y2="0.658" gradientUnits="objectBoundingBox">
      <stop offset="0" stop-color="#92d7c2"/>
      <stop offset="1" stop-color="#b1ecda" stop-opacity="0"/>
    </linearGradient>
    <clipPath id="clip-一个函鸽">
      <rect width="512" height="512"/>
    </clipPath>
  </defs>
  <g id="一个函鸽" clip-path="url(#clip-一个函鸽)">
    <rect width="512" height="512" fill="#b1ecda"/>
    <rect id="矩形_11" data-name="矩形 11" width="295.728" height="337" transform="translate(359.362 120.079) rotate(45)" fill="url(#linear-gradient)"/>
    <path id="多边形_1" data-name="多边形 1" d="M25.5,0,51,46H0Z" transform="translate(369.977 195.5) rotate(-30)" fill="#194c3d"/>
    <path id="路径_8" data-name="路径 8" d="M1849.179-1171.61c2.52-12.28,20.16-82.573,102.477-81.726s99.958,81.726,99.958,81.726,3.78,4.658,2.94,31.759-2.94,38.958-2.94,38.958S2033.554-969.2,1929.4-944.217s-177.235-69.87-177.235-69.87-19.74-24.137-24.779-44.039,5.04-22.866,5.04-22.866,0-5.5,19.739,0,26.879,4.658,26.879,4.658,36.539,2.541,51.659-21.172S1846.659-1159.33,1849.179-1171.61Z" transform="translate(-1651.115 1352.684)" fill="#40cfa4"/>
    <path id="路径_9" data-name="路径 9" d="M2712.018-1210.355c9.195-16.9,16.9-32.8,42.993-32.555s38.52,23.857,38.52,23.857,5.964,7.953,4.722,24.106-8.48,25.965-8.48,25.965-20.151,25.522-45.35,29.722-43.09-.516-63.468-11.2-42.745-25.1-25.1-24.851,29.325-3.728,29.325-3.728,10.189-5.467,15.9-13.42S2702.823-1193.456,2712.018-1210.355Z" transform="translate(-2484.735 1492.361)" fill="#fff"/>
    <circle id="椭圆_11" data-name="椭圆 11" cx="15" cy="15" r="15" transform="translate(283.208 170)" fill="#184c3d"/>
  </g>
</svg>
