<svg xmlns="http://www.w3.org/2000/svg" xmlns:xlink="http://www.w3.org/1999/xlink" width="512" height="512" viewBox="0 0 512 512">
  <defs>
    <linearGradient id="linear-gradient" x1="0.605" y1="0.424" x2="-0.137" y2="0.553" gradientUnits="objectBoundingBox">
      <stop offset="0" stop-color="#1397fe" stop-opacity="0"/>
      <stop offset="1" stop-color="#0070c5"/>
    </linearGradient>
    <linearGradient id="linear-gradient-2" x1="0.552" y1="0.322" x2="0.608" y2="1.317" gradientUnits="objectBoundingBox">
      <stop offset="0" stop-color="#ececec" stop-opacity="0"/>
      <stop offset="1" stop-color="#cfcfcf"/>
    </linearGradient>
    <clipPath id="clip-海纳云">
      <rect width="512" height="512"/>
    </clipPath>
  </defs>
  <g id="海纳云" clip-path="url(#clip-海纳云)">
    <rect width="512" height="512" fill="#0090ff"/>
    <g id="组_23" data-name="组 23">
      <path id="路径_24" data-name="路径 24" d="M-256.51-6.744l548.938-3.393L159.231,420.3l-356.165-23.6Z" transform="translate(538.943 256.697) rotate(45)" fill="url(#linear-gradient)"/>
    </g>
    <rect id="矩形_22" data-name="矩形 22" width="224" height="263" rx="11" transform="translate(144 66)" fill="#ececec"/>
    <g id="组_24" data-name="组 24">
      <path id="路径_26" data-name="路径 26" d="M759-340.992a22.9,22.9,0,0,1,17.313,0c9.374,3.808,17.577,8.2,17.577,8.2s25.487-77.338,93.158-67.378,96.38,62.4,96.38,62.4v49.8L759-286.211Z" transform="translate(-615 612)" fill="url(#linear-gradient-2)"/>
      <g id="组_1" data-name="组 1" transform="translate(0 84)">
        <path id="联合_1" data-name="联合 1" d="M143,794a90.9,90.9,0,1,1,89-71.937V794Z" transform="translate(133 -458)" fill="#fff"/>
        <circle id="椭圆_6" data-name="椭圆 6" cx="50.5" cy="50.5" r="50.5" transform="translate(317 235)" fill="#fff"/>
        <circle id="椭圆_7" data-name="椭圆 7" cx="61" cy="61" r="61" transform="translate(94 214)" fill="#fff"/>
        <rect id="矩形_7" data-name="矩形 7" width="145" height="61" transform="translate(155 275)" fill="#fff"/>
      </g>
    </g>
    <path id="多边形_2" data-name="多边形 2" d="M27.293,9.1a6,6,0,0,1,10.414,0l22.152,38.7a6,6,0,0,1-5.207,8.981h-44.3a6,6,0,0,1-5.207-8.981Z" transform="translate(189.57 329) rotate(90)" fill="#0075cf"/>
    <path id="路径_17" data-name="路径 17" d="M0,0H35V75L17.739,55.737,0,75Z" transform="translate(303 66)" fill="#a8a8a8"/>
    <path id="排除_5" data-name="排除 5" d="M-584.01,653.471a3.16,3.16,0,0,1-.792-.147c-.165-.044-.352-.094-.563-.139a24.494,24.494,0,0,1-6.485-3.688c-.405-.4-.588-.718-.514-.9.046-.111.182-.168.406-.168a3.5,3.5,0,0,1,1.014.209c.382.125.829.285,1.3.455a16.964,16.964,0,0,0,3.932,1.108,3.591,3.591,0,0,1,.729.114,1.794,1.794,0,0,0,.385.065c.346,0,.543-.257.87-1.851.527-2.568.562-3.12.563-3.125l-14.969.594a4.156,4.156,0,0,1-1.244.223,1.39,1.39,0,0,1-1.208-.5c-.1-.135-.182-.247-.257-.347-.445-.59-.514-.68-.165-1.685.4-1.15,1.393-7.128,1.406-7.2l-.017,0a10.465,10.465,0,0,1-1.577.134,2.614,2.614,0,0,1-1.874-.5c-.643-.681-1.231-1.793-1.1-2.088a.114.114,0,0,1,.114-.071.319.319,0,0,1,.1.019,7.938,7.938,0,0,0,2.1.34,2.463,2.463,0,0,0,.262-.012c.543-.058,2.2-.09,2.386-.094.012-.064.91-6.883.8-8.016a20.231,20.231,0,0,1-.094-2.031.461.461,0,0,1,.4-.185.9.9,0,0,1,.306.06c.426.155,1.769.655,2.327.863l.032.012,14.735-.8a1.766,1.766,0,0,1,.488-.07,1.284,1.284,0,0,1,.433.07,3.582,3.582,0,0,1,1.328.75.8.8,0,0,0,.151.17.458.458,0,0,1,.146.6,3.13,3.13,0,0,0-.2.7l-.017.095c-.062.341-.4,6.764-.407,6.828l2.016-.094a8.911,8.911,0,0,0,2.14-.406.834.834,0,0,1,.317-.059,3.528,3.528,0,0,1,2.121,1.324.722.722,0,0,1-.125,1.015c0,.005-.043.144-2.141.235s-4.4.228-4.5.234l-.859,7.391c.02,0,2.484-.234,2.781-.344a1.631,1.631,0,0,0,.175-.078,1.18,1.18,0,0,1,.633-.139c.093,0,.2,0,.318.014a3.751,3.751,0,0,1,2.311,1.931.438.438,0,0,1-.3.507c-1.073.486-5.718.5-6.244.5h-.052v.008c-.059.529-.616,5.219-2.016,6.884C-583.008,653.135-583.479,653.471-584.01,653.471Zm2.207-17.818-15,.719-1.312,7.234,15.39-.625c0-.006.019-.143.049-.369.124-.916.452-3.351.513-3.725C-582.085,638.423-581.805,635.68-581.8,635.653Zm.615-9.253-14.422.771-.894,6.968,14.89-.711c0-.008.012-.187.03-.46.073-1.1.243-3.674.275-4.01.041-.424.122-2.538.122-2.559Zm-30.471,24.378a5.7,5.7,0,0,1-1.909-.391c-.746-.289-.851-.422-1.011-.624a2.419,2.419,0,0,0-.27-.3c-.114-.107-.163-.2-.148-.277.026-.142.253-.233.493-.33.111-.045.224-.091.327-.144.474-.244,2.231-2.846,5.625-9.374,1.895-3.644,2.912-5.27,3.3-5.27a.124.124,0,0,1,.1.044,3.328,3.328,0,0,1,.03,1.616c-.152,1.413-1.874,5.735-2.608,7.527-1.238,3.026-2.577,6.012-2.924,6.52-.662.969-.981,1-.985,1Zm24.416-8.3a1.5,1.5,0,0,1-.919-.371c-.89-.706-5.052-3.241-5.094-3.266-.008,0-.086-.027-.234-.25-.135-.2-.119-.275-.041-.626l0-.01c.012-.052.025-.111.039-.176a1.63,1.63,0,0,1,.531-.844.6.6,0,0,1,.429-.148.953.953,0,0,1,.117.008,17.288,17.288,0,0,1,2.334,1.016c.368.176.749.357,1.089.515a16.68,16.68,0,0,1,2.578,1.579,1.594,1.594,0,0,1,.609.843c.231.631-.833,1.523-.843,1.532A.959.959,0,0,1-587.243,642.478Zm1.281-9.643a4.615,4.615,0,0,1-2.059-.978c-.41-.365-3.793-1.963-3.937-2.031-.008-.006-.7-.54-.626-1.047a1.659,1.659,0,0,1,.531-.891,1.051,1.051,0,0,1,.682-.268l.067,0a20.219,20.219,0,0,1,2.766,1.156,20.7,20.7,0,0,1,3.532,2.031c.447.5-.019,1.085-.393,1.558-.094.119-.184.232-.248.332A.348.348,0,0,1-585.962,632.834Zm-21.337-.524a2.9,2.9,0,0,1-1.207-.719c-.254-.286-4.985-3.98-5.625-4.391s-.626-.731-.625-.734a1.349,1.349,0,0,1,.266-.938c.089-.117.155-.218.208-.3.155-.237.226-.345.527-.357h.041a1.732,1.732,0,0,1,1.069.423c.046.043.348.235.8.526,1.863,1.186,6.221,3.959,6.071,4.787a2.473,2.473,0,0,1-1.516,1.7Zm3.927-3.62a.263.263,0,0,1-.257-.113c-.174-.324.466-1.292,1.351-2.632a32.06,32.06,0,0,0,2.49-4.244c.605-1.336,1.137-2.414,1.606-3.365l0-.006a18.494,18.494,0,0,0,1.579-3.77c.354-1.6.189-1.764.187-1.766a.889.889,0,0,1,.133-.627.51.51,0,0,1,.41-.167,1.5,1.5,0,0,1,.5.106,7.435,7.435,0,0,1,2.313,1.547.289.289,0,0,1,.131.172c.085.238.066.745-.506,1.812-.927,1.73-1.571,2.817-1.578,2.828l14.468-1.062a10.45,10.45,0,0,0,1.594-.391,2.4,2.4,0,0,1,.885-.188h.021a4.238,4.238,0,0,1,1.8,1.3c.358.518.529.777.483.978-.034.149-.192.267-.42.4a14.426,14.426,0,0,1-3.622.405c-.843.044-1.713.089-2.489.157-2.176.191-13.056.833-14.289.905h-.022l0,0c-.2.3-4.884,7.381-6.576,7.7A1.08,1.08,0,0,1-603.372,628.69Zm-1.709-6.319c-.508,0-1.184-.7-1.191-.7s-1.814-1.985-2.812-2.921c-.767-.72-1.521-1.353-2.02-1.772-.164-.138-.306-.257-.417-.353l0,0c-.353-.3-.353-.3-.381-.426-.008-.033-.017-.074-.036-.133a.577.577,0,0,1,.03-.465c.012-.028.023-.055.033-.082.045-.136.638-1.031.984-1.11a.86.86,0,0,1,.188-.026.912.912,0,0,1,.415.147c.108.055.242.122.429.207.566.257,3.85,3.194,5.252,4.448.337.3.549.491.654.583a1.035,1.035,0,0,1,.359,1.21l-.016.056a5.547,5.547,0,0,1-1.168,1.23l-.005,0A.424.424,0,0,1-605.081,622.371Z" transform="translate(773.224 -529.403)" fill="#0075cf"/>
    <path id="路径_137" data-name="路径 137" d="M782.7-477.3a15.165,15.165,0,0,1-.812,3.016,24.276,24.276,0,0,1-1.219,2.469c-.516.8-3.594,5.406-3.594,5.406s-1.516-.922-2.109,0-.531,1.422-.5,1.547.156.375,1.047.766,3.313,1.609,4.25,2.156,2.563,1.688,2.563,1.688l-3.8,6.016s-2.344-.078-2.484-.094-.687-.125-.422.766a5.377,5.377,0,0,0,1.234,2.3c.406.266.734.469,2.406,0s2.281-.531,3.875-1.031,5.469-1.922,6.313-2.266,2.141-1.594-.594-1.266-7.031,1.078-7.031,1.078l4.188-6.359,3.469-5.7s.891-1.375.656-1.953a4.507,4.507,0,0,0-1.187-1.406c-.2-.156-1.766-1.594-1.7.219s-3.469,7.375-3.469,7.375l-4.391-2.578s3.156-4.656,3.438-5.156a44.69,44.69,0,0,0,2.547-4.8c.391-1.172.359-1.234-.594-2.187a3.165,3.165,0,0,0-1.8-1.016s-.281.047-.281.641S782.719-477.266,782.7-477.3Z" transform="translate(-615 612)" fill="#0075cf"/>
    <path id="路径_138" data-name="路径 138" d="M774.359-443.469a7.638,7.638,0,0,0,.891,1.688,3.338,3.338,0,0,0,1.3,1.094,17.133,17.133,0,0,0,3.172-1.344s8.063-4.594,9.172-5.641,1.5-1.422,1.609-1.5.828-1.016-.859-.344-5.534,2.59-7.091,3.144-5.836,2.4-6.232,2.429a10.833,10.833,0,0,0-1.614.207A.522.522,0,0,0,774.359-443.469Z" transform="translate(-615 612)" fill="#0075cf"/>
    <path id="路径_139" data-name="路径 139" d="M791.313-468.828a6.862,6.862,0,0,1,.469,2.859c.063,2.156-.069,24.694-.069,24.694a3.273,3.273,0,0,0-.132,1.162c.026.739.014.8,1.248,1.472s1.766.516,1.719-.953-.187-26.469-.187-26.469l6.484-.25a46.479,46.479,0,0,1-.84,5.867c-.555,2.245-2.007,6.918-3.512,9.269s-2.218,4.727.475,2.112,5.228-9.717,5.228-9.717,2.482,4.04,3.565,6.258a27.248,27.248,0,0,1,1.4,3.222s.528.951,1.69,0,.713-1.558.713-1.558S807-455.8,805.76-457.7s-2.773-4.2-2.773-4.2a28,28,0,0,0,.581-3.591c0-.951.106-1.056.106-1.056l6.76-.29.026,25.112s-4.938-1.479-5.334-1.9-1.584-.29-1.584-.29-.819.739,3.618,3.644,4.964,1.875,4.964,1.875,1.188-.264,1.188-2.878-.132-25.271-.132-25.271l.317-1.373a2.215,2.215,0,0,0-1.558-1.373c-1.109-.158-8.133.464-8.133.464s.211-5.058.132-6.88.39-2.26-1.735-2.9-1.84-.109-1.359,1.475.216,8.424.216,8.424l-6.866.4a5.824,5.824,0,0,0-2.085-.873C791.219-469.266,791.313-468.828,791.313-468.828Z" transform="translate(-615 612)" fill="#0075cf"/>
  </g>
</svg>
