<svg xmlns="http://www.w3.org/2000/svg" xmlns:xlink="http://www.w3.org/1999/xlink" width="512" height="512" viewBox="0 0 512 512">
  <defs>
    <clipPath id="clip-烂笔头">
      <rect width="512" height="512"/>
    </clipPath>
  </defs>
  <g id="烂笔头" clip-path="url(#clip-烂笔头)">
    <rect width="512" height="512" fill="#ffd600"/>
    <path id="排除_10" data-name="排除 10" d="M-2012.018-1035.843h-41.8l-19.119-51.111h41.679l19.246,51.111Zm-113.634-.275h-45.657l52.346-56.425h-44.218l2.745-19.217h68.043l8.627-60.3-6.373-7.942h45.591c0,.041-.043.305-.109.769-2.256,15.763-9.637,67.215-9.892,67.47.033.086,4.7.131,13.875.131,15.737,0,39.908-.13,40.147-.131l-3.039,19.217h-69.415l-52.673,56.425Zm-77.046-.493h-105.025l3.823-28.3H-2361c.032-.187,3.182-18.61,2.549-18.736.028-.038,4.947-.057,14.62-.057,15.446,0,38.31.047,42.737.057h.126l.765-6.629h-46.013l2.678-18.226h45.885l.892-7.138-50.473,1.4,2.421-18.227,152.313-4.333-2.931,17.716-60.543,2.55-1.4,8.03h57.1l-2.422,18.226h-56.974l-1.147,6.629h69.337l-2.549,18.736h-69.465l-1.4,9.176h56.974l8.922-7.52-3.7,26.637Zm103.442-80.541h-39.9l-13.138-24.512h39.611l13.431,24.511Zm-137.658-24.512h-34.218l17.256-32.257-4.413-6.078h42.062l-5.1,8.726h41.669l-2.353,16.961h-19.216l5.98,12.646h-30.295l-5.393-11.177-5.98,11.177Zm-79.613,0h-34.609l17.745-32.061-4.51-6.177h41.571l-5.1,8.53h38.14l-2.353,16.667h-15.2l5.882,13.039h-30.786l-4.608-11.275-6.177,11.275Zm223.349-5.784h-39.806l-13.432-24.707h40.2l13.039,24.705Z" transform="translate(2434.191 1363.8)"/>
  </g>
</svg>
