<svg xmlns="http://www.w3.org/2000/svg" xmlns:xlink="http://www.w3.org/1999/xlink" width="512" height="512" viewBox="0 0 512 512">
  <defs>
    <linearGradient id="linear-gradient" x2="1" y2="1" gradientUnits="objectBoundingBox">
      <stop offset="0" stop-color="#0f5"/>
      <stop offset="1" stop-color="#0088fe"/>
    </linearGradient>
    <clipPath id="clip-简函">
      <rect width="512" height="512"/>
    </clipPath>
  </defs>
  <g id="简函" clip-path="url(#clip-简函)">
    <rect width="512" height="512" fill="url(#linear-gradient)"/>
    <path id="排除_6" data-name="排除 6" d="M-2326.852,135.831h-.006a42.122,42.122,0,0,1-18.243-3.691,29.051,29.051,0,0,1-10.3-8.122,29.38,29.38,0,0,1-4.565-8.123A21.292,21.292,0,0,1-2361,112.2l18.138-9.608a17.664,17.664,0,0,0,2.293,6.634c1.817,3.026,5.448,6.634,12.428,6.634.379,0,.77-.011,1.162-.032,5.556-.3,8.937-3.014,10.962-8.8a34.114,34.114,0,0,0,1.472-11.295l-.276-71.347h22.06V95.731a46,46,0,0,1-.2,6.259,51.508,51.508,0,0,1-3.189,13.841,32.469,32.469,0,0,1-5.816,9.435,33.423,33.423,0,0,1-9.616,7.541c-3.594,1.884-8.549,2.927-14.329,3.017C-2326.223,135.828-2326.54,135.831-2326.852,135.831Zm416.436-1.863h-17.811l-53.2-72.751v72.751H-2001.5l-.044-109.828h17.639l53.1,72.386V24.109h20.39V133.967Zm-188.322,0h-21.872L-2077.7,24h19.156l44.573,109.886h-23.3l-9.5-25.04h-42.536l-9.427,25.121Zm30.243-82.063h0l-14.1,38.464h28.81L-2068.494,51.9Zm-64.583,82.062h-21.929l.059-47.224h-49.487l.174,47.165h-22.045l.116-109.763h21.756V67.366h49.487l-.175-43.221h22.046Zm-116.139-.006h-21.705l.066-109.815h21.64Z" transform="translate(2385.922 173.086)" fill="#fff"/>
  </g>
</svg>
