<svg xmlns="http://www.w3.org/2000/svg" xmlns:xlink="http://www.w3.org/1999/xlink" width="512" height="512" viewBox="0 0 512 512">
  <defs>
    <linearGradient id="linear-gradient" x1="1.296" y1="0.517" x2="-0.127" y2="0.544" gradientUnits="objectBoundingBox">
      <stop offset="0" stop-color="#00b3ff" stop-opacity="0"/>
      <stop offset="1" stop-color="#0093d2"/>
    </linearGradient>
    <clipPath id="clip-简译">
      <rect width="512" height="512"/>
    </clipPath>
  </defs>
  <g id="简译" clip-path="url(#clip-简译)">
    <rect width="512" height="512" fill="#00b3ff"/>
    <path id="路径_72" data-name="路径 72" d="M2.523,2.491,365.311,14.205,422.429,408.38l-483.28-46.224Z" transform="translate(407.023 142.897) rotate(45)" fill="url(#linear-gradient)"/>
    <path id="路径_68" data-name="路径 68" d="M3519.471,1076.082h144.157V832.544h-178.74Z" transform="translate(-3260.2 -682.743)" fill="#00b3ff" stroke="#eee" stroke-width="10"/>
    <path id="减去_12" data-name="减去 12" d="M77.546,129.673h0L40.28,89.393l0,.005a48.422,48.422,0,0,1-7.322,8.4,68.691,68.691,0,0,1-10.77,8.4l-8.4-13.786c.089-.047,9.091-4.786,11.632-7.539a33.406,33.406,0,0,1,4.738-4.308l-.011-.01c-.779-.809-7.686-8.06-10.328-13.345-2.768-5.536-6-10.932-6.031-10.985H0V44.374H23.264A116.988,116.988,0,0,0,29.08,55.79C32.723,62.1,40.845,69.075,40.927,69.145c.045-.06,5.5-7.283,11.632-16.586C58.735,43.187,62,30.33,62.036,30.2H0V15.079H26.71V0H42V15.079H95.855V30.156H74.961v.009a74.664,74.664,0,0,1-2.1,10.573,82.948,82.948,0,0,1-3.534,10.41,66.857,66.857,0,0,1-6,11.319A135.165,135.165,0,0,1,52.4,77.087a26.03,26.03,0,0,1-3.5,3.473l39.2,38.558L77.547,129.672Z" transform="translate(255.669 206.734)" fill="#fff"/>
    <path id="路径_66" data-name="路径 66" d="M3376.771,788.86v244.63H3566.8L3491.8,788.86Z" transform="translate(-3268.2 -675.743)" fill="#fff"/>
    <path id="路径_67" data-name="路径 67" d="M3506.73,1033.854h57.517l-43.684,41.136Z" transform="translate(-3265.651 -676.107)" fill="#d4d4d4"/>
    <path id="路径_69" data-name="路径 69" d="M3451.4,902.438h56.061s4.172,37.5-26.043,57.153a52.666,52.666,0,0,1-30.29,8.723c-17.065-.289-36.11-8.9-46.521-21.769-6.936-7.783-13-19.041-13.373-32.171-.728-25.846,7.881-36.924,7.881-36.924s12.214-22.247,42.091-25.976,49.145,16.381,49.145,16.381l-17.838,15.289s-12.034-15.185-32.083-8.889-23.887,22.806-23.887,22.806-12.583,32.483,18.34,44.95,47.459-17.731,47.459-17.731H3451.4Z" transform="translate(-3264.2 -658.106)" fill="#00b3ff"/>
  </g>
</svg>
