<svg xmlns="http://www.w3.org/2000/svg" xmlns:xlink="http://www.w3.org/1999/xlink" width="512" height="512" viewBox="0 0 512 512">
  <defs>
    <linearGradient id="linear-gradient" x1="0.603" y1="0.497" x2="0.015" y2="0.558" gradientUnits="objectBoundingBox">
      <stop offset="0" stop-color="#0f7443" stop-opacity="0"/>
      <stop offset="1" stop-color="#0c703f"/>
    </linearGradient>
    <clipPath id="clip-课程时钟">
      <rect width="512" height="512"/>
    </clipPath>
  </defs>
  <g id="课程时钟" clip-path="url(#clip-课程时钟)">
    <rect width="512" height="512" fill="#0f894e"/>
    <rect id="矩形_43" data-name="矩形 43" width="412" height="409" transform="translate(396.287 114.485) rotate(45)" fill="url(#linear-gradient)"/>
    <path id="矩形_41" data-name="矩形 41" d="M0,0H170a30,30,0,0,1,30,30V170a30,30,0,0,1-30,30H0a0,0,0,0,1,0,0V0A0,0,0,0,1,0,0Z" transform="translate(206 106)" fill="#f1f1f1"/>
    <path id="路径_61" data-name="路径 61" d="M920.928,1376.66,820.9,1372v-99.825Z" transform="translate(-615 -1166)" fill="#bfbfbf"/>
    <rect id="矩形_42" data-name="矩形 42" width="200" height="200" rx="7" transform="translate(106 206)" fill="#fff"/>
    <path id="路径_140" data-name="路径 140" d="M2548.728-904.863l-9.776,75.226h74.894l9.776-8.45-4.474,27.34H2509.789s-10.936-1.988-9.61-11.267,14.084-102.068,14.084-102.068h120.461l-2.154,19.221Z" transform="translate(-2361 1172)" fill="#0f894e"/>
  </g>
</svg>
