<svg xmlns="http://www.w3.org/2000/svg" xmlns:xlink="http://www.w3.org/1999/xlink" width="512" height="512" viewBox="0 0 512 512">
  <defs>
    <linearGradient id="linear-gradient" x1="1.049" y1="0.424" x2="0.043" y2="0.414" gradientUnits="objectBoundingBox">
      <stop offset="0" stop-opacity="0"/>
      <stop offset="1" stop-color="#202020"/>
    </linearGradient>
    <clipPath id="clip-软件加固">
      <rect width="512" height="512"/>
    </clipPath>
  </defs>
  <g id="软件加固" clip-path="url(#clip-软件加固)">
    <rect width="512" height="512"/>
    <path id="路径_117" data-name="路径 117" d="M0,0H387.882V367l-357.095-.274,31.1-304.84Z" transform="translate(344.499 136.616) rotate(45)" fill="url(#linear-gradient)"/>
    <g id="组_15" data-name="组 15" transform="translate(0 -10.453)">
      <g id="矩形_53" data-name="矩形 53" transform="translate(106 232)" fill="#fff" stroke="#707070" stroke-width="1">
        <rect width="300" height="200" rx="7" stroke="none"/>
        <rect x="0.5" y="0.5" width="299" height="199" rx="6.5" fill="none"/>
      </g>
      <path id="路径_116" data-name="路径 116" d="M-434.015,1923.009h39.674v-49.293s4.208-61.315,66.725-63.118,69.13,63.118,69.13,63.118v49.293h40.276v-49.293s-4.809-106.4-109.405-105.8-106.4,105.8-106.4,105.8Z" transform="translate(582.112 -1667.009)" fill="#fff"/>
      <rect id="矩形_54" data-name="矩形 54" width="220" height="130" transform="translate(146 267)"/>
      <circle id="椭圆_43" data-name="椭圆 43" cx="22.5" cy="22.5" r="22.5" transform="translate(234 310)" fill="#fff"/>
    </g>
  </g>
</svg>
