<svg xmlns="http://www.w3.org/2000/svg" xmlns:xlink="http://www.w3.org/1999/xlink" width="512" height="512" viewBox="0 0 512 512">
  <defs>
    <linearGradient id="linear-gradient" x1="1.014" y1="0.561" x2="0.017" y2="0.541" gradientUnits="objectBoundingBox">
      <stop offset="0" stop-color="#0090ff" stop-opacity="0"/>
      <stop offset="1" stop-color="#0382e5"/>
    </linearGradient>
    <clipPath id="clip-轻浏览器">
      <rect width="512" height="512"/>
    </clipPath>
  </defs>
  <g id="轻浏览器" clip-path="url(#clip-轻浏览器)">
    <rect width="512" height="512" fill="#0090ff"/>
    <rect id="矩形_21" data-name="矩形 21" width="432.951" height="405" transform="translate(405.964 109.611) rotate(45)" fill="url(#linear-gradient)"/>
    <ellipse id="椭圆_16" data-name="椭圆 16" cx="61" cy="202.529" rx="61" ry="202.529" transform="translate(364.568 68.165) rotate(45)" fill="#ececec"/>
    <path id="减去_5" data-name="减去 5" d="M144.851,934.835a136.006,136.006,0,0,1-26.984-2.7A134.357,134.357,0,0,1,92.713,924.4c32.656-19.216,69.506-48.664,103.763-82.921,29.644-29.644,55.382-60.789,74.43-90.067a134.448,134.448,0,0,1,8.945,48.425,136,136,0,0,1-2.743,27.207A134.26,134.26,0,0,1,256.8,875.314a135.393,135.393,0,0,1-59.4,48.911,134.317,134.317,0,0,1-25.341,7.866A136,136,0,0,1,144.851,934.835ZM25.244,862.5h0v0A134.409,134.409,0,0,1,9.851,799.835a136,136,0,0,1,2.743-27.207,134.259,134.259,0,0,1,20.313-48.272,135.4,135.4,0,0,1,59.4-48.911,134.317,134.317,0,0,1,25.341-7.866,136.222,136.222,0,0,1,58.009.787,134.288,134.288,0,0,1,28.293,10.057C173.6,697.678,141.189,724.23,110.21,755.21,74.6,790.824,44.421,828.925,25.244,862.5Z" transform="translate(111.148 -543.835)" fill="#fff"/>
    <path id="交叉_1" data-name="交叉 1" d="M75.016,879.3a134.306,134.306,0,0,1-25.154-7.738c32.656-19.216,69.506-48.664,103.763-82.922,29.645-29.644,55.382-60.789,74.43-90.067A134.44,134.44,0,0,1,237,747a136,136,0,0,1-2.742,27.207,134.255,134.255,0,0,1-20.313,48.273,135.379,135.379,0,0,1-59.4,48.91,134.314,134.314,0,0,1-25.34,7.867,136.312,136.312,0,0,1-54.192.044Z" transform="translate(154 -491)" fill="#d5d5d5"/>
    <path id="路径_16" data-name="路径 16" d="M135,0A135.113,135.113,0,0,1,261.041,86.539c-7.107,32.493-118.792,142.285-177.97,173.076A135,135,0,0,1,135,0Z" transform="translate(121 121)" fill="#fff"/>
  </g>
</svg>
