<svg xmlns="http://www.w3.org/2000/svg" xmlns:xlink="http://www.w3.org/1999/xlink" width="512" height="512" viewBox="0 0 512 512">
  <defs>
    <linearGradient id="linear-gradient" x1="0.656" y1="0.5" x2="-0.248" y2="0.515" gradientUnits="objectBoundingBox">
      <stop offset="0" stop-color="#fff" stop-opacity="0"/>
      <stop offset="1" stop-color="#37458f"/>
    </linearGradient>
    <clipPath id="clip-AGE_Animation">
      <rect width="512" height="512"/>
    </clipPath>
  </defs>
  <g id="AGE_Animation" data-name="AGE Animation" clip-path="url(#clip-AGE_Animation)">
    <rect width="512" height="512" fill="#fff"/>
    <path id="路径_113" data-name="路径 113" d="M0,0,437.356-2.315,419.961,298.363,31.5,293.521l10.477-28.574Z" transform="translate(361.403 152.035) rotate(45)" fill="url(#linear-gradient)"/>
    <path id="减去_14" data-name="减去 14" d="M-1609-2048.321v0h0v-30.336A119.573,119.573,0,0,0-1509-2197a119.576,119.576,0,0,0-100-118.341v-30.337a148.616,148.616,0,0,1,51.273,16.659,150.635,150.635,0,0,1,22.11,14.625,151.333,151.333,0,0,1,19.137,18.2,150.932,150.932,0,0,1,15.7,21.306,149.829,149.829,0,0,1,11.79,23.946A149.371,149.371,0,0,1-1479-2197a149.37,149.37,0,0,1-9.992,53.945,149.816,149.816,0,0,1-11.79,23.946,150.91,150.91,0,0,1-15.7,21.306,151.3,151.3,0,0,1-19.137,18.2,150.631,150.631,0,0,1-22.11,14.625A148.609,148.609,0,0,1-1609-2048.321Zm-40,0h0a149.313,149.313,0,0,1-32.239-8.025,149.7,149.7,0,0,1-29.057-14.573l21.829-21.829A118.935,118.935,0,0,0-1649-2078.66v30.337Zm-91.8-48.668h0a150.5,150.5,0,0,1-20.608-29.456,149.2,149.2,0,0,1-13.124-34.055h31.18a119.115,119.115,0,0,0,23.807,42.256l-21.254,21.254Zm-8.154-103.511h-30.01a149.492,149.492,0,0,1,8.82-47.415,149.468,149.468,0,0,1,22.5-40.878l21.428,21.428A119.251,119.251,0,0,0-1748.949-2200.5Zm51.26-94.907h0l-21.478-21.478a149.935,149.935,0,0,1,32.818-18.761A149.13,149.13,0,0,1-1649-2345.678v30.338a118.552,118.552,0,0,0-48.689,19.932Z" transform="translate(1885 2453)" fill="#4152ad"/>
    <circle id="椭圆_42" data-name="椭圆 42" cx="120" cy="120" r="120" transform="translate(136 136)" fill="#fff"/>
    <path id="多边形_3" data-name="多边形 3" d="M60.5,0,121,96H0Z" transform="translate(318.5 195.5) rotate(90)" fill="#4152ad"/>
  </g>
</svg>
