<svg xmlns="http://www.w3.org/2000/svg" xmlns:xlink="http://www.w3.org/1999/xlink" width="512" height="512" viewBox="0 0 512 512">
  <defs>
    <linearGradient id="linear-gradient" x1="0.991" y1="0.544" x2="0.021" y2="0.537" gradientUnits="objectBoundingBox">
      <stop offset="0" stop-color="#00b3ff" stop-opacity="0"/>
      <stop offset="1" stop-color="#009ddf"/>
    </linearGradient>
    <clipPath id="clip-J2ME下载">
      <rect width="512" height="512"/>
    </clipPath>
  </defs>
  <g id="J2ME下载" clip-path="url(#clip-J2ME下载)">
    <rect width="512" height="512" fill="#00b3ff"/>
    <g id="组_22" data-name="组 22">
      <path id="路径_37" data-name="路径 37" d="M0,0H195V170H0l42.673-37.9L50.28,50.28Z" transform="translate(285.138 165.145) rotate(45)" fill="url(#linear-gradient)"/>
    </g>
    <g id="组_5" data-name="组 5" transform="translate(25.958 16.479)">
      <path id="减去_7" data-name="减去 7" d="M-1112,180a84.467,84.467,0,0,1-33.086-6.68,85.009,85.009,0,0,1-14.438-7.837A85.609,85.609,0,0,1-1172.1,155.1a85.608,85.608,0,0,1-10.379-12.58,85,85,0,0,1-7.837-14.438A84.463,84.463,0,0,1-1197,95a84.466,84.466,0,0,1,6.68-33.086,85.006,85.006,0,0,1,7.837-14.439A85.61,85.61,0,0,1-1172.1,34.9a85.608,85.608,0,0,1,12.58-10.379,85.007,85.007,0,0,1,14.438-7.837A84.467,84.467,0,0,1-1112,10a84.47,84.47,0,0,1,33.086,6.68,85.01,85.01,0,0,1,14.439,7.837A85.62,85.62,0,0,1-1051.9,34.9a85.614,85.614,0,0,1,10.379,12.58,85.012,85.012,0,0,1,7.837,14.439A84.468,84.468,0,0,1-1027,95a84.465,84.465,0,0,1-6.68,33.086,85.009,85.009,0,0,1-7.837,14.438A85.618,85.618,0,0,1-1051.9,155.1a85.621,85.621,0,0,1-12.58,10.379,85.013,85.013,0,0,1-14.439,7.837A84.47,84.47,0,0,1-1112,180Zm0-136a51.058,51.058,0,0,0-51,51,51.057,51.057,0,0,0,51,51,51.058,51.058,0,0,0,51-51A51.058,51.058,0,0,0-1112,44Z" transform="translate(1308 111)" fill="#fff"/>
      <rect id="矩形_31" data-name="矩形 31" width="134" height="34" transform="translate(254.331 239.248) rotate(45)" fill="#fff"/>
    </g>
  </g>
</svg>
