<svg xmlns="http://www.w3.org/2000/svg" xmlns:xlink="http://www.w3.org/1999/xlink" width="512" height="512" viewBox="0 0 512 512">
  <defs>
    <linearGradient id="linear-gradient" x1="0.89" y1="0.482" x2="-0.041" y2="0.488" gradientUnits="objectBoundingBox">
      <stop offset="0" stop-color="#f5f5f5" stop-opacity="0"/>
      <stop offset="1" stop-color="#c9c9c9"/>
    </linearGradient>
    <clipPath id="clip-习书阁">
      <rect width="512" height="512"/>
    </clipPath>
  </defs>
  <g id="习书阁" clip-path="url(#clip-习书阁)">
    <rect width="512" height="512" fill="#f5f5f5"/>
    <g id="组_13" data-name="组 13" transform="translate(-3457.887 413.35)">
      <rect id="矩形_44" data-name="矩形 44" width="119.909" height="179.863" transform="translate(3759.259 -243.206) rotate(45)" fill="url(#linear-gradient)"/>
      <g id="组_11" data-name="组 11" transform="translate(3538.887 -315.626)">
        <path id="路径_73" data-name="路径 73" d="M3942.917,169.562s2.487,5.968,12.932,4.476,16.91-2.487,28.847,0,31.832,3.979,31.832,3.979,13.429-3.482,18.9-1.989,21.387,3.979,22.879,1.989a21.992,21.992,0,0,1,4.476-3.979s1.99.5,9.947,1.989a23.891,23.891,0,0,0,14.424-1.989s6.465-2.984,6.963-8.953-3.482-7.958-3.482-7.958-2.745-3.634-1.239-5.14,3.963-1.347,4.122-2.616-3.884-8.719-10.859-18.31-8.005-18.31-16.17-3.646-3.706,18.072-3.706,18.072,17.5,9.432,19.876,12.761-.792,7.926-.792,7.926a32.326,32.326,0,0,1-18.389-1.091c-9.67-3.586-6.341,4.658-13.792,6.005s-4.835-1.268-15.853-3.171-9.67,3.488-16.487,3.171-31.626-5.152-46.528-4.835A154.574,154.574,0,0,0,3942.917,169.562Z" transform="translate(-3921.754 137.793)" fill="#ad3433"/>
        <path id="路径_74" data-name="路径 74" d="M4111.16,154.127s-6.719.983-12.084-8.041-1.707-7.987-4.085-16.28-16.4-20.487-16.4-20.487a34.466,34.466,0,0,0,2.622,17.865c4.085,9.451,24.815,24.755,5.853,20.609s-37.62,2.744-37.62,2.744a51.692,51.692,0,0,0,28.6,5.3c16.157-1.768,19.206-5.061,19.206-5.061s1.22,1.387,6.219,3.346S4111.16,154.127,4111.16,154.127Z" transform="translate(-3962.034 141.678)" fill="#ad3433"/>
        <path id="路径_75" data-name="路径 75" d="M4063.323,131.035c-.066-.244-8.907-4.634-9.578-12.438s.244-10.426-3.658-17.865-13.048-13.963-13.048-13.963-3.536,16.34,3.475,25.608,11.951,12.316-.914,9.085-35.059,1.219-35.059,1.219,10.182,9.268,23.535,7.561,21.157-2.866,25.669-1.4A67.012,67.012,0,0,0,4063.323,131.035Z" transform="translate(-3945.055 150.204)" fill="#ad3433"/>
        <path id="路径_76" data-name="路径 76" d="M4020.643,102.993s-5.049.412-6.7-11.747,1.546-12.056-2.885-21.742-6.389-8.243-6.389-8.243S3997.664,74.554,4001.58,83s8.346,17.311-4.534,11.335-31.119-4.534-31.119-4.534,6.594,12.056,23.7,13.189A234.8,234.8,0,0,0,4020.643,102.993Z" transform="translate(-3930.455 163.29)" fill="#ad3433"/>
        <path id="路径_77" data-name="路径 77" d="M3985.831,69.587s-2.774-5.152,0-16.17-8.085-29.327-8.085-29.327-6.658,4.439-3.725,22.035,4.2,16.962-7.688,9.274-26.474-7.054-26.474-7.054,4.439,11.81,22.669,15.377S3985.831,69.587,3985.831,69.587Z" transform="translate(-3920.597 178.643)" fill="#ad3433"/>
        <path id="路径_78" data-name="路径 78" d="M3962.9,36.11s-5.786-9.432-3.25-17.676,3.567-14.109,3.25-23.145-2.061-11.731-2.061-11.731-7.53,1.268-8.719,19.657-.079,14.109-10.859,4.677S3921.124-2.73,3921.124-2.73s.158,10.384,12.524,20.054S3962.9,36.11,3962.9,36.11Z" transform="translate(-3913.514 195.294)" fill="#ad3433"/>
        <path id="路径_79" data-name="路径 79" d="M3942.812-10.194s-5.865-14.267,2.14-23.462,5.152-23.7,5.152-23.7-13.237,7.53-14.506,18.627,2.536,12.682-6.341,1.585a67.109,67.109,0,0,0-20.371-16.725s-.317,10.463,13.554,23.462S3942.812-10.194,3942.812-10.194Z" transform="translate(-3908.887 212.662)" fill="#ad3433"/>
        <path id="路径_80" data-name="路径 80" d="M3933.475-62.613s-4.042-7.054,8.481-20.212,12.6-26,12.6-26-6.262.872-16.407,13.554-3.329,20.45-8.957,6.975a112.961,112.961,0,0,0-15.06-24.889s-7.53,13.078,4.835,27.425S3933.475-62.613,3933.475-62.613Z" transform="translate(-3910.013 235.933)" fill="#ad3433"/>
        <path id="路径_81" data-name="路径 81" d="M3937.145-115.214s-1.879-11.731,6.919-17.517,17.993-6.737,19.1-14.505,0-8.719,0-8.719-4.36-3.408-15.853,10.542-7.1,7.134-10.169-.872-10.677-21.322-10.677-21.322-8.957,8.64-.713,23.779A127.379,127.379,0,0,1,3937.145-115.214Z" transform="translate(-3913.946 258.705)" fill="#ad3433"/>
        <path id="路径_82" data-name="路径 82" d="M3949.389-166.621s2.061-8.243,17.2-12.207,14.981-20.054,14.981-20.054-6.975-1.823-18.231,8.4-8.561,8.006-7.292-.634-2.536-25.84-2.536-25.84-10.78-1.506-9.512,16.17A226.914,226.914,0,0,0,3949.389-166.621Z" transform="translate(-3922.124 279.447)" fill="#ad3433"/>
        <path id="路径_83" data-name="路径 83" d="M3973.582-212.5s5.839-7.926,19.631-11.335,15.536-11.493,15.536-11.493-4.121-4.042-16.09,2.14-11.414,6.262-9.274-.634,4.676-24.413,4.676-24.413-10.462-.634-13.792,16.328S3973.582-212.5,3973.582-212.5Z" transform="translate(-3932.974 299.456)" fill="#ad3433"/>
        <path id="路径_84" data-name="路径 84" d="M4000.4-245.672s2.14-3.408,12.92-5.073,16.962-4.122,20.45-6.9,4.994-8.006,4.994-8.006a40.453,40.453,0,0,0-20.926,3.8c-10.3,5.152-.951-6.183,0-11.731a15.208,15.208,0,0,0-1.347-9.512s-11.573,4.677-11.493,17.438S4000.4-245.672,4000.4-245.672Z" transform="translate(-3943.49 308.852)" fill="#ad3433"/>
        <path id="路径_85" data-name="路径 85" d="M4034.942-276.695s6.579-5.387,22.59-5.228,14.03-7.847,4.518-6.5-17.438,4.835-13.871-1.427,12.524-21.718,1.585-15.932-7.688,14.664-10.3,18.944A56.435,56.435,0,0,0,4034.942-276.695Z" transform="translate(-3956.551 317.915)" fill="#ad3433"/>
        <path id="路径_86" data-name="路径 86" d="M4069.48-298.585s22.907,2.616,27.188-2.378-.872-5.786-.872-5.786-10.938,1.268-13.158.555,21.957-24.334,4.042-16.17S4069.48-298.585,4069.48-298.585Z" transform="translate(-3969.609 324.352)" fill="#ad3433"/>
        <path id="路径_87" data-name="路径 87" d="M4108.1-309.215a36.225,36.225,0,0,0,21.084-4.28c10.3-5.865,6.341-12.127,2.3-10.859s-11.811,3.012-17.6,7.768S4108.1-309.215,4108.1-309.215Z" transform="translate(-3984.215 324.519)" fill="#ad3433"/>
      </g>
      <g id="组_10" data-name="组 10" transform="translate(3716.482 -315.626)">
        <path id="路径_88" data-name="路径 88" d="M4094.16,169.562s-2.487,5.968-12.932,4.476-16.91-2.487-28.847,0-31.832,3.979-31.832,3.979-13.429-3.482-18.9-1.989-21.387,3.979-22.879,1.989a21.992,21.992,0,0,0-4.476-3.979s-1.99.5-9.948,1.989a23.891,23.891,0,0,1-14.424-1.989s-6.466-2.984-6.963-8.953,3.482-7.958,3.482-7.958,2.745-3.634,1.239-5.14-3.963-1.347-4.122-2.616,3.884-8.719,10.859-18.31,8.005-18.31,16.169-3.646,3.706,18.072,3.706,18.072-17.5,9.432-19.876,12.761.792,7.926.792,7.926a32.325,32.325,0,0,0,18.389-1.091c9.67-3.586,6.341,4.658,13.792,6.005s4.835-1.268,15.853-3.171,9.67,3.488,16.487,3.171,31.626-5.152,46.528-4.835A154.574,154.574,0,0,1,4094.16,169.562Z" transform="translate(-3942.917 137.793)" fill="#ad3433"/>
        <path id="路径_89" data-name="路径 89" d="M4049.444,154.127s6.719.983,12.084-8.041,1.707-7.987,4.085-16.28,16.4-20.487,16.4-20.487a34.469,34.469,0,0,1-2.621,17.865c-4.085,9.451-24.816,24.755-5.853,20.609s37.62,2.744,37.62,2.744a51.692,51.692,0,0,1-28.6,5.3c-16.157-1.768-19.206-5.061-19.206-5.061s-1.219,1.387-6.219,3.346S4049.444,154.127,4049.444,154.127Z" transform="translate(-4026.164 141.678)" fill="#ad3433"/>
        <path id="路径_90" data-name="路径 90" d="M4004.54,131.035c.067-.244,8.907-4.634,9.579-12.438s-.244-10.426,3.658-17.865,13.048-13.963,13.048-13.963,3.536,16.34-3.475,25.608-11.951,12.316.915,9.085,35.059,1.219,35.059,1.219-10.182,9.268-23.535,7.561-21.157-2.866-25.669-1.4A67.027,67.027,0,0,1,4004.54,131.035Z" transform="translate(-3950.403 150.204)" fill="#ad3433"/>
        <path id="路径_91" data-name="路径 91" d="M3965.927,102.993s5.049.412,6.7-11.747-1.546-12.056,2.885-21.742,6.389-8.243,6.389-8.243,7.007,13.292,3.091,21.742-8.346,17.311,4.534,11.335,31.119-4.534,31.119-4.534-6.594,12.056-23.7,13.189A234.805,234.805,0,0,1,3965.927,102.993Z" transform="translate(-3883.71 163.29)" fill="#ad3433"/>
        <path id="路径_92" data-name="路径 92" d="M3940.312,69.587s2.774-5.152,0-16.17S3948.4,24.09,3948.4,24.09s6.658,4.439,3.726,22.035-4.2,16.962,7.688,9.274,26.474-7.054,26.474-7.054-4.439,11.81-22.669,15.377S3940.312,69.587,3940.312,69.587Z" transform="translate(-3833.14 178.643)" fill="#ad3433"/>
        <path id="路径_93" data-name="路径 93" d="M3921.179,36.11s5.786-9.432,3.25-17.676-3.567-14.109-3.25-23.145,2.061-11.731,2.061-11.731,7.53,1.268,8.719,19.657.079,14.109,10.859,4.677S3962.951-2.73,3962.951-2.73s-.158,10.384-12.523,20.054S3921.179,36.11,3921.179,36.11Z" transform="translate(-3798.156 195.294)" fill="#ad3433"/>
        <path id="路径_94" data-name="路径 94" d="M3916.674-10.194s5.865-14.267-2.14-23.462-5.152-23.7-5.152-23.7,13.237,7.53,14.505,18.627-2.536,12.682,6.341,1.585A67.112,67.112,0,0,1,3950.6-53.869s.317,10.463-13.554,23.462S3916.674-10.194,3916.674-10.194Z" transform="translate(-3778.194 212.662)" fill="#ad3433"/>
        <path id="路径_95" data-name="路径 95" d="M3932.948-62.613s4.042-7.054-8.481-20.212-12.6-26-12.6-26,6.262.872,16.407,13.554,3.329,20.45,8.957,6.975a112.972,112.972,0,0,1,15.06-24.889s7.53,13.078-4.835,27.425S3932.948-62.613,3932.948-62.613Z" transform="translate(-3784.006 235.933)" fill="#ad3433"/>
        <path id="路径_96" data-name="路径 96" d="M3948.782-115.214s1.879-11.731-6.92-17.517-17.993-6.737-19.1-14.505,0-8.719,0-8.719,4.36-3.408,15.853,10.542,7.1,7.134,10.169-.872,10.677-21.322,10.677-21.322,8.957,8.64.713,23.779A127.384,127.384,0,0,0,3948.782-115.214Z" transform="translate(-3799.576 258.705)" fill="#ad3433"/>
        <path id="路径_97" data-name="路径 97" d="M3976.076-166.621s-2.061-8.243-17.2-12.207-14.981-20.054-14.981-20.054,6.975-1.823,18.23,8.4,8.561,8.006,7.292-.634,2.537-25.84,2.537-25.84,10.78-1.506,9.511,16.17A226.9,226.9,0,0,1,3976.076-166.621Z" transform="translate(-3830.937 279.447)" fill="#ad3433"/>
        <path id="路径_98" data-name="路径 98" d="M4007.754-212.5s-5.839-7.926-19.631-11.335-15.536-11.493-15.536-11.493,4.122-4.042,16.09,2.14,11.414,6.262,9.274-.634-4.676-24.413-4.676-24.413,10.463-.634,13.792,16.328S4007.754-212.5,4007.754-212.5Z" transform="translate(-3875.958 299.456)" fill="#ad3433"/>
        <path id="路径_99" data-name="路径 99" d="M4038.764-245.672s-2.14-3.408-12.92-5.073-16.962-4.122-20.45-6.9-4.993-8.006-4.993-8.006a40.452,40.452,0,0,1,20.926,3.8c10.3,5.152.951-6.183,0-11.731a15.209,15.209,0,0,1,1.347-9.512s11.573,4.677,11.493,17.438S4038.764-245.672,4038.764-245.672Z" transform="translate(-3923.27 308.852)" fill="#ad3433"/>
        <path id="路径_100" data-name="路径 100" d="M4069.385-276.695s-6.579-5.387-22.59-5.228-14.03-7.847-4.518-6.5,17.438,4.835,13.871-1.427-12.524-21.718-1.585-15.932,7.688,14.664,10.3,18.944A56.435,56.435,0,0,1,4069.385-276.695Z" transform="translate(-3975.371 317.915)" fill="#ad3433"/>
        <path id="路径_101" data-name="路径 101" d="M4098.363-298.585s-22.907,2.616-27.187-2.378.872-5.786.872-5.786,10.938,1.268,13.158.555-21.956-24.334-4.043-16.17S4098.363-298.585,4098.363-298.585Z" transform="translate(-4025.83 324.352)" fill="#ad3433"/>
        <path id="路径_102" data-name="路径 102" d="M4135.734-309.215a36.227,36.227,0,0,1-21.084-4.28c-10.3-5.865-6.341-12.127-2.3-10.859s11.811,3.012,17.6,7.768S4135.734-309.215,4135.734-309.215Z" transform="translate(-4087.218 324.519)" fill="#ad3433"/>
      </g>
      <g id="组_12" data-name="组 12" transform="translate(3632.076 -246.915)">
        <path id="路径_103" data-name="路径 103" d="M5006.976-21.748c-15.01,4.414,11.772-32.079,11.772-32.079s-2.943-6.769,0-7.063,9.418-18.835,20.6-27.076,19.718-17.658,29.431-19.424,14.42-3.826,17.364-4.414,20.306-26.193,23.249-27.958,8.535-6.475,14.715-4.414,18.835,3.237,12.655,28.253-.589,23.25-2.06,38.259-25.31,35.9-25.31,35.9-12.949,7.063-17.069,8.535S5021.985-26.163,5006.976-21.748Z" transform="translate(-5002.407 150.937)" fill="#f5f5f5" stroke="#000" stroke-width="8"/>
        <path id="路径_104" data-name="路径 104" d="M5101.054,44.012l-2.061,12.949-5,5.592h11.184" transform="translate(-5037.037 79.586)" fill="#f5f5f5" stroke="#000" stroke-width="8"/>
        <path id="路径_105" data-name="路径 105" d="M5137.056,37.859s5.886,6.769,4.414,13.832S5145,60.521,5145,60.521l-3.532,1.471h15.3" transform="translate(-5053.321 81.912)" fill="#f5f5f5" stroke="#000" stroke-width="8"/>
        <path id="路径_106" data-name="路径 106" d="M5032.942-11.066s30.313,1.766,44.733-8.535,16.48-15.892,16.48-15.892" transform="translate(-5013.953 109.648)" fill="#f5f5f5" stroke="#000" stroke-width="8"/>
        <path id="路径_107" data-name="路径 107" d="M5060.864-17.863s17.069-2.354,27.958-11.478" transform="translate(-5024.511 107.322)" fill="#f5f5f5" stroke="#000" stroke-width="8"/>
        <path id="路径_108" data-name="路径 108" d="M5221.118-121.624l8.055,9.123-8.055,2.06Z" transform="translate(-5085.106 142.216)" fill="#f5f5f5" stroke="#000" stroke-width="8"/>
        <path id="路径_109" data-name="路径 109" d="M5217.507-146.883s-.2-4.016,7.868-6.97a38.219,38.219,0,0,1,5.964-1.564c14.127-2.649,17.363,12.066,17.363,12.066s.884,6.475-4.708,5-16.775-11.478-16.775-11.478" transform="translate(-5085.606 155.737)" fill="#f5f5f5" stroke="#000" stroke-width="5"/>
      </g>
      <circle id="椭圆_38" data-name="椭圆 38" cx="3.731" cy="3.731" r="3.731" transform="translate(3743.573 -223.284)"/>
    </g>
  </g>
</svg>
