<svg xmlns="http://www.w3.org/2000/svg" xmlns:xlink="http://www.w3.org/1999/xlink" width="512" height="512" viewBox="0 0 512 512">
  <defs>
    <clipPath id="clip-勇者">
      <rect width="512" height="512"/>
    </clipPath>
  </defs>
  <g id="勇者" clip-path="url(#clip-勇者)">
    <rect width="512" height="512" fill="#40cfa4"/>
    <path id="排除_7" data-name="排除 7" d="M-1634.465,182.1h0a4.339,4.339,0,0,1-.546-.028h-40.6l17.73-19.055.994-11.1h-53.023l-27.671,30.156H-1779l27.009-30.156h-26.015l2.485-18.061h39.436l3.148-2.816h41.921l-2.817,2.816h76.219l-3.148,29.163a33.643,33.643,0,0,1-.745,5.364c-.6,2.74-1.829,6.563-4.225,9.217C-1629.4,181.661-1633.062,182.1-1634.465,182.1Zm185.729-3.01h-136.782l5.171-34.249h-19.387l31.019-43.943h-21.326l2.586-18.956h60.959l2.154-13.14h-53.635l2.585-19.171h52.774l1.077-3.877L-1528.435,38h46.312l-1.939,11.632h21.325l2.154-3.877h38.343L-1441.2,81.942h13.785l-3.231,18.956h-100.593l-6.032,9.478h98.655l-10.124,68.713Zm-95.611-24.689-.892,5.608h61.562l.637-5.608Zm3.7-24.727-1.147,5.863h61.052l.765-5.863h-60.67ZM-1486.481,69l-1.784,13.128h9.431L-1472.46,69h-14.021Zm-133.12,61.869h-34.464l1.491-8.119h-22.369l-.829,5.965h-36.287l.829-5.965h-24.854l-1.326,8.119h-34.3l8.617-62.3h45.9l-2.983-8.617h29l2.486,8.617h26.511l15.244-10.77h-111.182l2.319-15.575,144.818-.829-2.155,16.4-15.078,10.77h17.232l-8.617,62.3Zm-52.194-28.721-.995,5.191h22.2l1.491-5.191h-22.7Zm-61.48,0h0l-1.153,4.805h25.521l.659-4.805Zm63.8-19-.828,4.805h22.369l.995-4.805Zm-61.473,0h0l-1.16,4.805h25.683l.662-4.805Z" transform="translate(1859.101 145.398)" fill="#fff"/>
  </g>
</svg>
