<svg xmlns="http://www.w3.org/2000/svg" xmlns:xlink="http://www.w3.org/1999/xlink" width="512" height="512" viewBox="0 0 512 512">
  <defs>
    <clipPath id="clip-悟空">
      <rect width="512" height="512"/>
    </clipPath>
  </defs>
  <g id="悟空" clip-path="url(#clip-悟空)">
    <rect width="512" height="512" fill="#ffd600"/>
    <path id="排除_9" data-name="排除 9" d="M-2321.88-434.267h-25.884l19.511-136.085-4.118-7.452h30.785Zm304.4-3.137h-159.7l2.8-18.992h60.415l4.716-32.246h-49.072l2.55-18.864h137.4l-2.931,18.864h-49.964l-4.716,32.246h61.307l-2.8,18.991Zm-184.2,0h-100.79l7.745-53.238h100.3l-7.255,53.238Zm-61.278-35.983h0l-2.549,17.844h32.452l2.648-17.844h-32.551Zm-83.045,0h-15l13.922-76.279h13.824Zm155.205-21.57h-103.927l2.254-17.55h12.06l6.765-16.569h-10.981l2.254-16.962h15.883l3.922-10.1h-21.472l2.746-18.041,97.848.2-2.941,17.844H-2230.7l-4.118,10h43.63l-5,33.629h7.745l-2.353,17.549h0Zm-51-34.021h0l-6.864,16.743h19.76l2.413-16.743h-15.309Zm-52.636,19.8h-14.413l5.686-40.492h13.923Zm286.381-3.048h-38.365l-19.246-21.413h37.983l19.627,21.411Zm-123.762,0h-37.856l27.276-21.413h38.11l-27.53,21.413Zm6.8-25.286h-38.335l4.02-29.217h61.082l.784-3.628-7.06-7.647h45.886l-1.863,11.275h61.081l-4.51,29.119h-37.845l1.765-10-83.436.1-1.569,10h0Z" transform="translate(2436.21 761.806)"/>
  </g>
</svg>
