<svg xmlns="http://www.w3.org/2000/svg" xmlns:xlink="http://www.w3.org/1999/xlink" width="512" height="512" viewBox="0 0 512 512" fill="none"><defs><rect id="path_0" x="0" y="0" width="512" height="512" /><linearGradient id="linear_0" x1="0%" y1="0%" x2="1%" y2="100%" gradientUnits="objectBoundingBox"><stop offset="0" stop-color="#B64B3F" stop-opacity="1" /><stop offset="1" stop-color="#8B2519" stop-opacity="1" /></linearGradient><linearGradient id="linear_1" x1="0%" y1="0%" x2="1%" y2="100%" gradientUnits="objectBoundingBox"><stop offset="0" stop-color="#B64B3F" stop-opacity="1" /><stop offset="1" stop-color="#8B2519" stop-opacity="1" /></linearGradient><linearGradient id="linear_2" x1="0%" y1="0%" x2="1%" y2="100%" gradientUnits="objectBoundingBox"><stop offset="0" stop-color="#203C51" stop-opacity="1" /><stop offset="1" stop-color="#1B3649" stop-opacity="1" /></linearGradient><radialGradient id="linear_3" cx="50%" cy="50%" fx="50%" fy="50%" r="0.5" gradientTransform="translate(0.5 0.5) scale(0.7333333333333333 1) rotate(90) scale(1 1.3636363636363635) translate(-0.5 -0.5)" ><stop offset="0" stop-color="#B0AAA9" stop-opacity="1" /><stop offset="1" stop-color="#CCCCCC" stop-opacity="0" /></radialGradient><radialGradient id="linear_4" cx="50%" cy="50.000000000000014%" fx="50%" fy="50.000000000000014%" r="0.5000000000000001" gradientTransform="translate(0.5 0.5000000000000001) scale(1.2748007414291025 1) rotate(90) scale(1 0.7844363181644841) translate(-0.5 -0.5000000000000001)" ><stop offset="0" stop-color="#BDAEAA" stop-opacity="1" /><stop offset="1" stop-color="#BDAFAB" stop-opacity="0" /></radialGradient><radialGradient id="linear_5" cx="50%" cy="50%" fx="50%" fy="50%" r="0.5" gradientTransform="translate(0.5 0.5) scale(0.48484848484848486 1) rotate(90) scale(1 1.2352941176470589) translate(-0.5 -0.5)" ><stop offset="0" stop-color="#F2CFC7" stop-opacity="1" /><stop offset="1" stop-color="#D6B7B0" stop-opacity="0" /></radialGradient><radialGradient id="linear_6" cx="50%" cy="50%" fx="50%" fy="50%" r="0.5" gradientTransform="translate(0.5 0.5) scale(0.4848484848484848 1) rotate(90) scale(1 1.2352941176470589) translate(-0.5 -0.5)" ><stop offset="0" stop-color="#F2CFC7" stop-opacity="1" /><stop offset="1" stop-color="#BDA7A2" stop-opacity="0" /></radialGradient><radialGradient id="linear_7" cx="50%" cy="50%" fx="50%" fy="50%" r="0.5" gradientTransform="translate(0.5 0.5) scale(0.48484848484848486 1) rotate(90) scale(1 1.2352941176470589) translate(-0.5 -0.5)" ><stop offset="0" stop-color="#F2CFC7" stop-opacity="1" /><stop offset="1" stop-color="#D6B7B0" stop-opacity="0" /></radialGradient><radialGradient id="linear_8" cx="50%" cy="50%" fx="50%" fy="50%" r="0.65575" gradientTransform="translate(0.5 0.5) scale(1.5 1) rotate(90) scale(1 0.6666666666666666) translate(-0.5 -0.5)" ><stop offset="0" stop-color="#AB4F2E" stop-opacity="1" /><stop offset="1" stop-color="#5E2A17" stop-opacity="0.01" /></radialGradient><radialGradient id="linear_9" cx="50%" cy="50%" fx="50%" fy="50%" r="0.65575" gradientTransform="translate(0.5 0.5) scale(1.5 1) rotate(90) scale(1 0.6666666666666666) translate(-0.5 -0.5)" ><stop offset="0" stop-color="#AB4F2E" stop-opacity="1" /><stop offset="1" stop-color="#5E2A17" stop-opacity="0.01" /></radialGradient><radialGradient id="linear_10" cx="50%" cy="50%" fx="50%" fy="50%" r="0.5" gradientTransform="translate(0.5 0.5) scale(0.8333333333333334 1) rotate(90) scale(1 1.2) translate(-0.5 -0.5)" ><stop offset="0" stop-color="#9C928F" stop-opacity="1" /><stop offset="1" stop-color="#7A6E6A" stop-opacity="0" /></radialGradient><radialGradient id="linear_11" cx="50%" cy="50%" fx="50%" fy="50%" r="0.5" gradientTransform="translate(0.5 0.5) scale(0.7692307692307693 1) rotate(90) scale(1 1.3) translate(-0.5 -0.5)" ><stop offset="0" stop-color="#9C928F" stop-opacity="1" /><stop offset="1" stop-color="#5E5755" stop-opacity="0.01" /></radialGradient></defs><g opacity="1" transform="translate(0 0)  rotate(0 256 256)"><rect fill="#FFFFFF" opacity="1" transform="translate(0 0)  rotate(0 256 256)" x="0" y="0" width="512" height="512" /><mask id="bg-mask-0" fill="white"><use xlink:href="#path_0"></use></mask><g mask="url(#bg-mask-0)" ><path id="矩形 1" fill-rule="evenodd" fill="url(#linear_0)" transform="translate(312 0)  rotate(0 100 256)" opacity="1" d="M0,512L200,512L200,0L0,0L0,512Z " /><path id="矩形 1" fill-rule="evenodd" fill="url(#linear_1)" transform="translate(147 0)  rotate(0 100 256)" opacity="1" d="M0,512L200,512L200,0L0,0L0,512Z " /><path id="矩形 1" fill-rule="evenodd" fill="url(#linear_2)" transform="translate(0 0)  rotate(0 201.49999999999997 256)" opacity="1" d="M0,512L147.5,512L403,0L0,0L0,512Z " /><path id="矩形 2" fill-rule="evenodd" style="fill:#827C7F" transform="translate(424.28109064520424 485.3653786570974)  rotate(-0.7382409868632749 28.5 22)" opacity="1" d="M0,44L57,44L57,0L0,0L0,44Z " /><rect  id="矩形 2" style="stroke:#7F4A40; stroke-width:3; stroke-opacity:1; stroke-dasharray:0 0" transform="translate(424.28109064520424 485.3653786570974)  rotate(-0.7382409868632749 28.5 22)" x="1.5" y="1.5" rx="0"  width="54" height="41" /><path id="矩形 2" fill-rule="evenodd" style="fill:#DDD2D0" transform="translate(403.28109064520424 490.3653786570974)  rotate(-0.7382409868632749 28.5 22)" opacity="1" d="M0,44L57,44L57,0L0,0L0,44Z " /><rect  id="矩形 2" style="stroke:#3D3937; stroke-width:3; stroke-opacity:1; stroke-dasharray:0 0" transform="translate(403.28109064520424 490.3653786570974)  rotate(-0.7382409868632749 28.5 22)" x="1.5" y="1.5" rx="0"  width="54" height="41" /><path id="路径 3" fill-rule="evenodd" style="fill:#212322" transform="translate(247 107.59751633583505)  rotate(0 119.85476017439322 202.20124183208247)" opacity="1" d="M226.5,404.4L226.5,122.4L237.5,122.4C242.71,98.66 242.5,37.4 193,13.9C143.5,-9.6 128.1,2.65 121.5,7.9L0,125.4L1,404.4L39,404.4L226.5,404.4Z " /><path id="路径 4" fill-rule="evenodd" style="fill:#827C7C" transform="translate(319.5 191.5)  rotate(0 73.53715087825084 87.00000000000011)" opacity="1" d="M143,96C147.5,78 147.15,38.8 147,22L103,22L100.5,8L96,19.5L37.5,19.5L32.5,0L27.5,22L0,25.5L0,129C2.32,130.91 9.5,137 16.5,143.5C23.5,150 38.9,156.65 45.5,159.5L53.5,174L81.5,174C81.95,170.96 86.5,163 100.5,159.5C114.5,156 122.2,143.75 125.5,138.5C129.06,132.5 138.5,114 143,96Z " /><path  id="路径 4" style="stroke:#000000; stroke-width:2; stroke-opacity:1; stroke-dasharray:0 0" transform="translate(319.5 191.5)  rotate(0 73.53715087825084 87.00000000000011)" d="M143,96C147.5,78 147.15,38.8 147,22L103,22L100.5,8L96,19.5L37.5,19.5L32.5,0L27.5,22L0,25.5L0,129C2.32,130.91 9.5,137 16.5,143.5C23.5,150 38.9,156.65 45.5,159.5L53.5,174L81.5,174C81.95,170.96 86.5,163 100.5,159.5C114.5,156 122.2,143.75 125.5,138.5C129.06,132.5 138.5,114 143,96Z " /><path  id="路径 6" style="stroke:#000000; stroke-width:3; stroke-opacity:1; stroke-dasharray:0 0" transform="translate(383.5 307.17347122056617)  rotate(0 16.40519432661888 8.413264389716865)" d="M27,14.83C33.5,12.83 33.1,7.63 32.5,5.83C32.01,4.7 29.5,1.83 24,0.83C18.5,-0.17 10.54,-0.37 7.5,0.83C4.65,1.95 0,5.83 0,10.83C0,15.83 9.45,16.53 13.5,16.83C15.41,16.68 20.5,16.83 27,14.83Z " /><path id="路径 1" fill-rule="evenodd" style="fill:#817B7B" transform="translate(285.5 350.5)  rotate(0 96.75 80.5)" opacity="1" d="M145,53C133.5,49 130,39.9 128.5,36C126,32.5 127.75,10.8 128.5,1.5C128.05,2.4 124,4.5 112,4.5C100,4.5 85.65,1.35 79.5,0C79.54,8.55 79.5,30 79,36C78.5,42 62.75,46.9 56,49L35,55C29.86,56.46 16,62 8.5,70.5C1,79 0.65,97.9 0.5,106L0,157L0,161L193.5,161C193.5,140 193.5,89.5 193.5,83.5C193.5,77.5 192.45,74.7 192,73.5C189.97,70.76 183.5,63.5 176.5,60C169.5,56.5 156.5,57 145,53Z " /><path  id="路径 1" style="stroke:#000000; stroke-width:2; stroke-opacity:1; stroke-dasharray:0 0" transform="translate(285.5 350.5)  rotate(0 96.75 80.5)" d="M145,53C133.5,49 130,39.9 128.5,36C126,32.5 127.75,10.8 128.5,1.5C128.05,2.4 124,4.5 112,4.5C100,4.5 85.65,1.35 79.5,0C79.54,8.55 79.5,30 79,36C78.5,42 62.75,46.9 56,49L35,55C29.86,56.46 16,62 8.5,70.5C1,79 0.65,97.9 0.5,106L0,157L0,161L193.5,161C193.5,140 193.5,89.5 193.5,83.5C193.5,77.5 192.45,74.7 192,73.5C189.97,70.76 183.5,63.5 176.5,60C169.5,56.5 156.5,57 145,53Z " /><path id="路径 2" fill-rule="evenodd" style="fill:#DFD1D0" transform="translate(319 399.5)  rotate(0 70.74999999999997 56.25000000000007)" opacity="1" d="M23,0L1.5,6.5C1.05,10.4 0,19.5 0,36.5C0,53.5 0.7,96.08 1,112.5L141.5,112C140.9,99.4 139.5,70 139.5,45C139.5,20 133.9,9.73 131.5,8C125.65,6.95 112,4.5 111,4C110,3.5 109,20 96.5,23C84,26 71.86,26.23 68,26C62,25.7 48,25 37.5,16C27,7 23.41,1.42 23,0Z " /><path  id="路径 2" style="stroke:#000000; stroke-width:2; stroke-opacity:1; stroke-dasharray:0 0" transform="translate(319 399.5)  rotate(0 70.74999999999997 56.25000000000007)" d="M23,0L1.5,6.5C1.05,10.4 0,19.5 0,36.5C0,53.5 0.7,96.08 1,112.5L141.5,112C140.9,99.4 139.5,70 139.5,45C139.5,20 133.9,9.73 131.5,8C125.65,6.95 112,4.5 111,4C110,3.5 109,20 96.5,23C84,26 71.86,26.23 68,26C62,25.7 48,25 37.5,16C27,7 23.41,1.42 23,0Z " /><path id="路径 5" fill-rule="evenodd" style="fill:#202121" transform="translate(338 224.13371625193122)  rotate(0 62.74590745159218 18.849808540701137)" opacity="1" d="M16.5 0.37C19.65 0.07 27 -0.63 31 1.37C34.75 3.62 43.5 8.87 43 18.37C42.5 27.87 37.64 33.64 29 36.37C29 36.37 19.5 39.37 12.5 36.37C6.65 34.12 0 30.37 0 18.37C0 6.37 11.55 1.27 16.5 0.37ZM105 1.37C102.19 1.89 95 5.37 92.5 14.37C90 23.37 96.3 29.67 99 32.37C100.39 33.57 105 36.37 110.5 36.37C116 36.37 120 31.57 121.5 30.37C125.5 25.37 128 12.87 121.5 5.87C115.329 -0.776073 108.707 0.60062 105.485 1.27034C105.314 1.306 105.152 1.33966 105 1.37Z" /><path id="圆形 1" fill-rule="evenodd" style="fill:#202121" transform="translate(403.5 263.5)  rotate(0 3.5 7.5)" opacity="1" d="M3.5,0C1.57,0 0,3.36 0,7.5C0,11.64 1.57,15 3.5,15C5.43,15 7,11.64 7,7.5C7,3.36 5.43,0 3.5,0Z " /><path id="圆形 3" fill-rule="evenodd" style="fill:#D4D1CD" transform="translate(146 342.5)  rotate(0 22.5 31)" opacity="1" d="M22.5,0C10.07,0 0,13.88 0,31C0,48.12 10.07,62 22.5,62C34.93,62 45,48.12 45,31C45,13.88 34.93,0 22.5,0Z " /><path id="路径 23" fill-rule="evenodd" style="fill:#282A29" transform="translate(173.5 9.78)  rotate(0 89.91860758503269 75.61376040336457)" opacity="1" d="M78.5,1.22C65.5,-2.27 58.5,2.62 55.5,4.72L68.5,16.72C65.91,17.32 59,18.72 55.5,18.72C52,18.72 45.7,23.27 43,25.22L27.5,25.22L33,33.22C30.23,33.22 23,33.22 20,33.22C17,33.22 5.1,43.02 0,47.22L15.5,57.22C14.23,58.65 10,63.72 5,70.72C0,77.72 0.35,95.57 0.5,103.22L15.5,87.72L115.5,151.22C128.29,151.34 160,147.72 167.5,132.22C175,116.73 177.45,103.42 178.5,97.72C180.45,88.76 182,63.72 170,47.22C158,30.72 138.75,26.87 130.5,25.22L145.5,13.22C141.34,13.22 130.5,13.22 126,13.22C121.5,13.22 113.1,17.07 109.5,18.72C105.08,14.79 91.5,4.72 78.5,1.22Z " /><path id="路径 14" fill-rule="evenodd" style="fill:#CCE8F5" transform="translate(247.5 178.5)  rotate(0 15.499999999999986 22.25)" opacity="1" d="M31,44.5L31,0L0,0L0,44.5L31,44.5Z " /><path  id="路径 14" style="stroke:#000000; stroke-width:2; stroke-opacity:1; stroke-dasharray:0 0" transform="translate(247.5 178.5)  rotate(0 15.499999999999986 22.25)" d="M31,44.5L31,0L0,0L0,44.5L31,44.5Z " /><path id="路径 15" fill-rule="evenodd" style="fill:#CBDADD" transform="translate(187.7 80.5)  rotate(0 72.89081785669704 55.263830953425554)" opacity="1" d="M59.8,0C58.83,0.26 53.8,2.5 42.8,9C31.8,15.5 27.25,24.6 25.3,28.5L23.3,2.5L0.8,17C-0.89,28.59 -1.2,62 13.3,87.5C18.1,95.94 21.86,99.56 26.3,103C35.28,109.97 43.99,110.7 48.3,110.5L78.8,109C85.1,109.15 103.8,107 119.8,97C135.8,87 132.3,69.85 130.8,62.5C131.7,61.71 135.8,57.5 143.8,48C151.8,38.5 133.3,29.5 128.3,33.5C123.3,37.5 123.8,38.5 121.8,50.5C119.8,62.5 117.35,54.1 116.3,50.5L111.8,30.5L103.8,33.5C104.14,30.57 103.8,21.5 99.3,12.5C94.8,3.5 91.3,2.8 89.8,2.5L78.3,15.5L76.3,0.5L59.8,9L59.8,0Z " /><path  id="路径 15" style="stroke:#000000; stroke-width:2; stroke-opacity:1; stroke-dasharray:0 0" transform="translate(187.7 80.5)  rotate(0 72.89081785669704 55.263830953425554)" d="M59.8,0C58.83,0.26 53.8,2.5 42.8,9C31.8,15.5 27.25,24.6 25.3,28.5L23.3,2.5L0.8,17C-0.89,28.59 -1.2,62 13.3,87.5C18.1,95.94 21.86,99.56 26.3,103C35.28,109.97 43.99,110.7 48.3,110.5L78.8,109C85.1,109.15 103.8,107 119.8,97C135.8,87 132.3,69.85 130.8,62.5C131.7,61.71 135.8,57.5 143.8,48C151.8,38.5 133.3,29.5 128.3,33.5C123.3,37.5 123.8,38.5 121.8,50.5C119.8,62.5 117.35,54.1 116.3,50.5L111.8,30.5L103.8,33.5C104.14,30.57 103.8,21.5 99.3,12.5C94.8,3.5 91.3,2.8 89.8,2.5L78.3,15.5L76.3,0.5L59.8,9L59.8,0Z " /><path id="路径 20" fill-rule="evenodd" style="fill:#2A292C" transform="translate(255.1 115.99)  rotate(0 9.030537550444247 7.080567148613062)" opacity="1" d="M10.4,14.01C17.9,13.01 18.46,7.33 17.9,5.01C17.3,3.51 15.9,0.01 10.4,0.01C4.9,0.01 2.13,-0.36 0.4,3.51C-0.5,5.52 0.4,9.01 0.4,9.01C1.15,10.81 2.9,15.01 10.4,14.01Z " /><path id="圆形 9" fill-rule="evenodd" fill="url(#linear_3)" transform="translate(264 122.5)  rotate(0 15 11)" opacity="1" d="M15,0C6.72,0 0,4.92 0,11C0,17.08 6.72,22 15,22C23.28,22 30,17.08 30,11C30,4.92 23.28,0 15,0Z " /><path id="路径 22" fill-rule="evenodd" fill="url(#linear_4)" transform="translate(191.8 126.94)  rotate(0 10.35000000000003 13.19418767379125)" opacity="1" d="M14.7,0.06C12.86,-0.16 8.7,0.06 9.2,3.06C9.7,6.06 2.7,3.06 0.7,4.06C-1.3,5.06 1.5,16.61 2.7,21.56C4.65,23.48 9.2,27.56 9.2,26.06C9.2,24.56 11.3,21.41 12.2,20.06C14.75,19.69 20.7,17.06 20.7,10.06C20.7,3.06 18.95,3.76 18.2,4.06L14.7,0.06Z " /><path id="路径 21" fill-rule="evenodd" style="fill:#2A292C" transform="translate(199.89 114.89)  rotate(0 8.039779703306097 8.809849794350855)" opacity="1" d="M10.11,17.11C17.61,14.61 16.42,6.72 15.11,3.61C13.61,1.96 10.11,-1.89 5.11,1.11C0.11,4.11 -0.27,7.84 0.11,9.11C0.86,12.26 2.61,19.61 10.11,17.11Z " /><path id="路径 19"  style="fill:#000000" transform="translate(228 139)  rotate(0 4.623190992186781 0.9999999999998863)" opacity="1" d="M-1.48842 1.81395Q-1.48239 1.76569 -1.47073 1.66459Q-1.43329 1.33957 -1.39938 1.16033Q-1.32738 0.779666 -1.18818 0.468773Q-0.808047 -0.38028 0.0916772 -0.8358Q0.818004 -1.20353 2.04071 -1.35725Q3.17622 -1.5 5 -1.5Q6.84811 -1.5 7.97928 -1.30334Q9.24927 -1.08254 9.91718 -0.538472Q10.3763 -0.164487 10.5868 0.355314Q10.777 0.824812 10.7375 1.35178Q10.7126 1.6844 10.5907 2.0498Q10.5357 2.21464 10.4214 2.48828Q10.398 2.54436 10.3873 2.57035L8.9999 1.99996L10.3846 2.57692Q10.3278 2.7133 10.2455 2.83596Q10.1631 2.95863 10.0584 3.06288Q9.95375 3.16712 9.83074 3.24894Q9.70774 3.33077 9.57113 3.38702Q9.43452 3.44327 9.28956 3.47179Q9.1446 3.50031 8.99686 3.5Q8.84912 3.49969 8.70429 3.47056Q8.55945 3.44144 8.42308 3.38461Q8.2867 3.32779 8.16404 3.24546Q8.04137 3.16312 7.93712 3.05844Q7.83288 2.95375 7.75106 2.83074Q7.66923 2.70773 7.61298 2.57112Q7.52439 2.35597 7.50514 2.12409Q7.48589 1.89221 7.5378 1.66539Q7.5025 1.65877 7.46543 1.65233Q6.58926 1.5 5 1.5Q3.36405 1.5 2.41492 1.61932Q1.81442 1.69482 1.53515 1.80199Q1.52431 1.87986 1.50955 2.00799Q1.49624 2.12344 1.48842 2.18605Q1.47928 2.25917 1.46301 2.33105Q1.44675 2.40292 1.42352 2.47285Q1.40029 2.54279 1.37032 2.61011Q1.34035 2.67742 1.30392 2.74148Q1.26749 2.80554 1.22496 2.86572Q1.18243 2.9259 1.13421 2.98162Q1.08598 3.03734 1.03253 3.08806Q0.979078 3.13879 0.920911 3.18403Q0.862743 3.22927 0.800421 3.26859Q0.738099 3.30791 0.672223 3.34094Q0.606347 3.37396 0.537551 3.40037Q0.468756 3.42678 0.397703 3.44632Q0.32665 3.46585 0.254024 3.47833Q0.181398 3.49081 0.107899 3.49611Q0.0343991 3.50141 -0.0392659 3.49949Q-0.112931 3.49756 -0.186052 3.48842Q-0.332648 3.47009 -0.472853 3.42352Q-0.613057 3.37695 -0.741482 3.30392Q-0.869907 3.23089 -0.981617 3.13421Q-1.09333 3.03753 -1.18403 2.92091Q-1.27473 2.80429 -1.34094 2.67222Q-1.40715 2.54015 -1.44632 2.3977Q-1.48549 2.25525 -1.49611 2.1079Q-1.50674 1.96054 -1.48842 1.81395Z " /><path  id="路径 19" style="stroke:#000000; stroke-width:3; stroke-opacity:1; stroke-dasharray:0 0" transform="translate(228 139)  rotate(0 4.623190992186781 0.9999999999998863)" d="" /><path id="路径 18"  style="fill:#000000" transform="translate(230 165)  rotate(0 8.75 1.7500000000000002)" opacity="1" d="M-1.30236 2.75579Q-0.885259 2.02586 -0.481042 1.54498Q0.241166 0.685799 1.2648 0.0705839Q3.87804 -1.5 8.5 -1.5Q13.1505 -1.5 16.0418 0.0305395Q17.2332 0.661242 18.0006 1.49304Q18.7478 2.30297 18.9552 3.1362Q18.9556 3.13783 18.956 3.13946Q18.9737 3.21089 18.9843 3.2837Q18.9949 3.35652 18.9984 3.43002Q19.0018 3.50353 18.998 3.57702Q18.9942 3.6505 18.9833 3.72327Q18.9723 3.79603 18.9543 3.86738Q18.9363 3.93872 18.9114 4.00796Q18.8865 4.0772 18.8549 4.14366Q18.8233 4.21013 18.7854 4.27318Q18.7474 4.33624 18.7035 4.39528Q18.6596 4.45432 18.6101 4.50878Q18.5606 4.56324 18.506 4.61259Q18.4515 4.66195 18.3923 4.70572Q18.3332 4.74949 18.27 4.78727Q18.2069 4.82504 18.1403 4.85646Q18.0738 4.88787 18.0045 4.91262Q17.9352 4.93737 17.8638 4.95521Q17.7205 4.99105 17.5729 4.99823Q17.4254 5.00541 17.2792 4.98366Q17.1331 4.96192 16.994 4.91208Q16.8549 4.86225 16.7283 4.78624Q16.6031 4.71113 16.4947 4.61329Q16.3864 4.51545 16.2989 4.39856Q16.2115 4.28166 16.1482 4.1501Q16.0849 4.01853 16.0482 3.87724L16.0479 3.87647Q16.0363 3.84923 16.0134 3.81045Q15.9362 3.67958 15.7956 3.52727Q15.3762 3.0726 14.6382 2.68196Q13.6568 2.16244 12.2922 1.86475Q10.6201 1.5 8.5 1.5Q4.71019 1.5 2.8102 2.64192Q2.21556 2.9993 1.81542 3.47533Q1.58526 3.74914 1.30236 4.24421Q1.22907 4.37248 1.13215 4.48399Q1.03524 4.59549 0.918432 4.68595Q0.801626 4.77641 0.669417 4.84234Q0.537207 4.90827 0.394676 4.94715Q0.252145 4.98602 0.104768 4.99634Q-0.0426079 5.00665 -0.189166 4.98802Q-0.335723 4.96939 -0.47583 4.92253Q-0.615937 4.87566 -0.744208 4.80236Q-0.87248 4.72907 -0.983987 4.63215Q-1.09549 4.53524 -1.18595 4.41843Q-1.27641 4.30162 -1.34234 4.16942Q-1.40827 4.03721 -1.44715 3.89468Q-1.48602 3.75214 -1.49634 3.60477Q-1.50666 3.45739 -1.48802 3.31083Q-1.46939 3.16428 -1.42253 3.02417Q-1.37566 2.88406 -1.30236 2.75579ZM16.0448 3.8638L17.5 3.5L16.044 3.86054Q16.0444 3.86221 16.0448 3.8638Z " /><path  id="路径 18" style="stroke:#000000; stroke-width:3; stroke-opacity:1; stroke-dasharray:0 0" transform="translate(230 165)  rotate(0 8.75 1.7500000000000002)" d="" /><path id="路径 13" fill-rule="evenodd" style="fill:#FFFFFF" transform="translate(228.5 204.5)  rotate(0 35.500000000000014 17.25)" opacity="1" d="M0,34.5L59,34.5L71,12L51,0L31.5,12L16,0L0,12L0,34.5Z " /><path  id="路径 13" style="stroke:#000000; stroke-width:2; stroke-opacity:1; stroke-dasharray:0 0" transform="translate(228.5 204.5)  rotate(0 35.500000000000014 17.25)" d="M0,34.5L59,34.5L71,12L51,0L31.5,12L16,0L0,12L0,34.5Z " /><path id="路径 11" fill-rule="evenodd" style="fill:#1A6665" transform="translate(164.16 203.5)  rotate(0 72.6675355962026 80)" opacity="1" d="M96.34,14L83.34,23.5L64.84,12L34.34,37C27.77,45.33 10.84,70 4.34,91C-2.16,112 0.29,130.55 1.34,138.5L1.34,151.5L46.34,160L145.34,0L112.84,23.5L96.34,14Z " /><path  id="路径 11" style="stroke:#000000; stroke-width:2; stroke-opacity:1; stroke-dasharray:0 0" transform="translate(164.16 203.5)  rotate(0 72.6675355962026 80)" d="M96.34,14L83.34,23.5L64.84,12L34.34,37C27.77,45.33 10.84,70 4.34,91C-2.16,112 0.29,130.55 1.34,138.5L1.34,151.5L46.34,160L145.34,0L112.84,23.5L96.34,14Z " /><path  id="路径 12" style="stroke:#000000; stroke-width:2; stroke-opacity:1; stroke-dasharray:0 0" transform="translate(202.65 273.92)  rotate(0 7.676966093950938 43.1697711270653)" d="M2.85,86.34C1.2,75.84 -2.65,51.34 2.85,26.84C8.35,2.34 14.42,-0.56 15.35,0.08 " /><path id="路径 7"  style="fill:#FFFFFF" transform="translate(137.5 -4)  rotate(0 146 258.25)" opacity="1" d="M206 157.5L227 124.5L231.5 157.5L218.5 189L236 157.5L231.5 140L231.5 121.5L236 140L240.5 140L236 109.5L240.5 101L258 81.5L258 71.5L264 63.5L264 60.5L292 22L289.5 0L240.5 0L236 38.5L199.5 71.5L202.5 94L212.5 101L171.5 182L153.5 209L146 228.5L134.5 254L116 272.5L100 297.5L79.5 312L75.5 321L71.5 325L71.5 343.5L47.5 347.73L47.5 384.73L56 394.5L59.5 405.5L51.5 427L37 437L22 456L14.5 480.5L9.5 469L0 469L3 480.5L6 496.5L0 516.5L22 516.5L47.5 473L48.5 460.5L51.5 445.5L59.5 431L71.5 427L75.5 421L75.5 391.5L84.5 371.5L100 337.5L125 290.5L128 277.5L134.5 272.5L146 254L158 238L164.5 216L193.5 167.5L206 157.5Z " /><path  id="路径 7" style="stroke:#A6A6A6; stroke-width:1; stroke-opacity:1; stroke-dasharray:0 0" transform="translate(137.5 -4)  rotate(0 146 258.25)" d="M206 157.5L227 124.5L231.5 157.5L218.5 189L236 157.5L231.5 140L231.5 121.5L236 140L240.5 140L236 109.5L240.5 101L258 81.5L258 71.5L264 63.5L264 60.5L292 22L289.5 0L240.5 0L236 38.5L199.5 71.5L202.5 94L212.5 101L171.5 182L153.5 209L146 228.5L134.5 254L116 272.5L100 297.5L79.5 312L75.5 321L71.5 325L71.5 343.5L47.5 347.73L47.5 384.73L56 394.5L59.5 405.5L51.5 427L37 437L22 456L14.5 480.5L9.5 469L0 469L3 480.5L6 496.5L0 516.5L22 516.5L47.5 473L48.5 460.5L51.5 445.5L59.5 431L71.5 427L75.5 421L75.5 391.5L84.5 371.5L100 337.5L125 290.5L128 277.5L134.5 272.5L146 254L158 238L164.5 216L193.5 167.5L206 157.5Z " /><path id="路径 9" fill-rule="evenodd" style="fill:#947F74" transform="translate(184.5 212.28)  rotate(0 19.040963310926745 17.309195183199627)" opacity="1" d="M0,19.22L11.5,34.22C20.01,35.61 39.5,34.22 38,15.72C36.5,-2.78 22.15,-0.33 16,0.72L0,19.22Z " /><path  id="路径 9" style="stroke:#000000; stroke-width:2; stroke-opacity:1; stroke-dasharray:0 0" transform="translate(184.5 212.28)  rotate(0 19.040963310926745 17.309195183199627)" d="M0,19.22L11.5,34.22C20.01,35.61 39.5,34.22 38,15.72C36.5,-2.78 22.15,-0.33 16,0.72L0,19.22Z " /><path id="路径 8" fill-rule="evenodd" style="fill:#8F7E70" transform="translate(29 119.5)  rotate(0 85.38446042550027 85.17016049689505)" opacity="1" d="M166.76,127.59C165.37,125.34 162.26,118.09 162.76,110.09C163.26,102.09 168.51,97.19 170.76,95.09C171.21,61.38 151.76,-13.41 69.76,2.09C-12.24,17.59 -0.24,95.09 1.76,102.59C3.76,110.09 16.36,118.14 21.76,121.59L11.76,119.59C8.01,126 1.76,144.59 11.76,159.09C21.76,173.59 46.61,170.44 57.26,169.09L116.26,164.59C126.31,163.39 151.26,159.09 157.26,153.09C163.26,147.09 165.71,133.44 166.76,127.59Z " /><path  id="路径 8" style="stroke:#000000; stroke-width:2; stroke-opacity:1; stroke-dasharray:0 0" transform="translate(29 119.5)  rotate(0 85.38446042550027 85.17016049689505)" d="M166.76,127.59C165.37,125.34 162.26,118.09 162.76,110.09C163.26,102.09 168.51,97.19 170.76,95.09C171.21,61.38 151.76,-13.41 69.76,2.09C-12.24,17.59 -0.24,95.09 1.76,102.59C3.76,110.09 16.36,118.14 21.76,121.59L11.76,119.59C8.01,126 1.76,144.59 11.76,159.09C21.76,173.59 46.61,170.44 57.26,169.09L116.26,164.59C126.31,163.39 151.26,159.09 157.26,153.09C163.26,147.09 165.71,133.44 166.76,127.59Z " /><path id="路径 10" fill-rule="evenodd" style="fill:#F89664" transform="translate(147.78 163.5)  rotate(0 21.610808644132536 20.69628881914561)" opacity="1" d="M30.22,10.5C28.06,10.89 26.22,12 26.22,12L24.72,4.5C24.53,3.15 22.72,0 17.22,0C11.72,0 12.77,10.5 13.22,15C12.36,15 9.72,15 7.22,15C4.72,15 3.32,16.4 2.72,17C1.37,17.98 -1.28,21.5 0.72,26.5C2.72,31.5 10.07,29.4 13.22,28.5L13.22,34C13.37,36.85 14.72,43 18.72,41C22.72,39 24.12,33.75 24.72,31.5C25.36,33.15 28.22,37 33.72,37C39.22,37 35.37,26.85 33.72,22.5C36.57,22.84 43.22,22.5 43.22,18C43.22,13.5 37.52,10.95 35.72,10.5C35.72,10.5 32.39,10.11 30.22,10.5Z " /><path id="圆形 4" fill-rule="evenodd" style="fill:#FFFFFF" transform="translate(165 179.5)  rotate(0 5 5)" opacity="1" d="M5,0C2.24,0 0,2.24 0,5C0,7.76 2.24,10 5,10C7.76,10 10,7.76 10,5C10,2.24 7.76,0 5,0Z " /><path id="路径 16" fill-rule="evenodd" style="fill:#F4FEFF" transform="translate(43.36 156.56)  rotate(0 70.82726875266457 66.97000000000003)" opacity="1" d="M5.14,78.94C6.64,81.94 4.54,81.94 3.64,81.94C2.56,85.05 3.64,96.94 18.14,115.44C32.64,133.94 63.09,133.94 76.14,133.94C83.72,133.19 104.14,129.44 115.14,121.44C126.14,113.44 135.14,96.94 135.64,93.44C136.14,89.94 130.54,88.19 128.14,87.44C133.17,82.34 144.14,68.94 141.14,62.94C138.14,56.94 131.14,54.49 128.14,53.44C118.64,51.44 118.29,70.69 118.14,78.94L118.14,65.94C116.01,61.14 106.14,47.94 86.64,39.94C67.14,31.94 56.99,13.74 52.64,5.94C50.96,1.82 46.64,-5.06 45.14,5.94C43.64,16.94 24.39,37.24 16.14,45.94C11.72,50.82 1.14,62.94 0.14,65.94C-0.86,68.94 3.64,75.94 5.14,78.94Z " /><path  id="路径 16" style="stroke:#000000; stroke-width:2; stroke-opacity:1; stroke-dasharray:0 0" transform="translate(43.36 156.56)  rotate(0 70.82726875266457 66.97000000000003)" d="M5.14,78.94C6.64,81.94 4.54,81.94 3.64,81.94C2.56,85.05 3.64,96.94 18.14,115.44C32.64,133.94 63.09,133.94 76.14,133.94C83.72,133.19 104.14,129.44 115.14,121.44C126.14,113.44 135.14,96.94 135.64,93.44C136.14,89.94 130.54,88.19 128.14,87.44C133.17,82.34 144.14,68.94 141.14,62.94C138.14,56.94 131.14,54.49 128.14,53.44C118.64,51.44 118.29,70.69 118.14,78.94L118.14,65.94C116.01,61.14 106.14,47.94 86.64,39.94C67.14,31.94 56.99,13.74 52.64,5.94C50.96,1.82 46.64,-5.06 45.14,5.94C43.64,16.94 24.39,37.24 16.14,45.94C11.72,50.82 1.14,62.94 0.14,65.94C-0.86,68.94 3.64,75.94 5.14,78.94Z " /><path id="路径 17"  style="fill:#000000" transform="translate(59.5 199)  rotate(0 6.75 2.6461147107979612)" opacity="1" d="M14.6084 -1.01063Q14.5588 -1.06508 14.504 -1.11441Q14.4493 -1.16373 14.39 -1.20746Q14.3307 -1.25118 14.2673 -1.28887Q14.204 -1.32657 14.1373 -1.35788Q14.0706 -1.38919 14.0011 -1.41381Q13.9317 -1.43843 13.8602 -1.45612Q13.7886 -1.47381 13.7157 -1.48441Q13.6428 -1.49501 13.5692 -1.4984Q13.4955 -1.5018 13.422 -1.49797Q13.3484 -1.49413 13.2755 -1.48311Q13.2026 -1.47208 13.1312 -1.45396Q13.0598 -1.43584 12.9905 -1.41081Q12.9212 -1.38578 12.8546 -1.35408Q12.7881 -1.32237 12.725 -1.2843Q12.6619 -1.24623 12.6029 -1.20216Q12.5438 -1.15808 12.4894 -1.10843L13.5005 0.00058856L12.4884 -1.10754Q11.9808 -0.64393 11.2284 -0.0719869Q10.3022 0.631996 9.35307 1.22593Q6.93257 2.74055 5.2534 3.02041Q4.32874 3.17452 3.00625 3.52996Q2.37748 3.69895 2.13547 3.74609Q1.85446 3.80082 1.69693 3.79056Q1.43044 3.77321 1.00901 3.39009Q0.955406 3.34136 0.897357 3.29802Q0.68828 3.14193 0.438776 3.06561Q0.189273 2.98929 -0.0713477 3.0017Q-0.218918 3.00872 -0.362281 3.04441Q-0.505644 3.08009 -0.639292 3.14305Q-0.77294 3.20602 -0.891735 3.29385Q-1.01053 3.38167 -1.10991 3.49099Q-1.20929 3.60031 -1.28543 3.72691Q-1.36157 3.85352 -1.41155 3.99254Q-1.46153 4.13157 -1.48343 4.27767Q-1.50533 4.42378 -1.4983 4.57135Q-1.49128 4.71892 -1.45559 4.86228Q-1.41991 5.00564 -1.35695 5.13929Q-1.29398 5.27294 -1.20615 5.39174Q-1.11833 5.51053 -1.00901 5.60991Q-0.414875 6.15003 0.175733 6.43409Q0.810072 6.73917 1.50202 6.78422Q2.04693 6.8197 2.70898 6.69076Q3.05439 6.62349 3.78491 6.42715Q4.96619 6.10966 5.7466 5.97959Q8.01636 5.6013 10.9444 3.76907Q12.0091 3.10283 13.0438 2.31636Q13.9034 1.663 14.5106 1.10843L14.5116 1.10754Q14.566 1.05787 14.6152 1.00311Q14.6645 0.948356 14.7081 0.889037Q14.7518 0.829718 14.7894 0.766409Q14.8271 0.703099 14.8583 0.636407Q14.8896 0.569716 14.9141 0.500284Q14.9387 0.430852 14.9563 0.359348Q14.974 0.287844 14.9845 0.214956Q14.9951 0.142067 14.9984 0.068495Q15.0018 -0.00507687 14.9979 -0.0786244Q14.9941 -0.152172 14.983 -0.224987Q14.972 -0.297803 14.9539 -0.369186Q14.9357 -0.440569 14.9107 -0.509833Q14.8857 -0.579098 14.854 -0.645576Q14.8223 -0.712055 14.7842 -0.775109Q14.7462 -0.838163 14.7021 -0.897185Q14.6581 -0.956208 14.6084 -1.01063Z " /><path  id="路径 17" style="stroke:#000000; stroke-width:3; stroke-opacity:1; stroke-dasharray:0 0" transform="translate(59.5 199)  rotate(0 6.75 2.6461147107979612)" d="" /><path id="路径 17"  style="fill:#000000" transform="translate(114 196)  rotate(0 6.5 2.146114710797961)" opacity="1" d="M14.1084 -1.01063Q14.0588 -1.06508 14.004 -1.11441Q13.9493 -1.16373 13.89 -1.20746Q13.8307 -1.25118 13.7673 -1.28887Q13.704 -1.32657 13.6373 -1.35788Q13.5706 -1.38919 13.5011 -1.41381Q13.4317 -1.43843 13.3602 -1.45612Q13.2886 -1.47381 13.2157 -1.48441Q13.1428 -1.49501 13.0692 -1.4984Q12.9955 -1.5018 12.922 -1.49797Q12.8484 -1.49413 12.7755 -1.48311Q12.7026 -1.47208 12.6312 -1.45396Q12.5598 -1.43584 12.4905 -1.41081Q12.4212 -1.38578 12.3546 -1.35408Q12.2881 -1.32237 12.225 -1.2843Q12.1619 -1.24623 12.1029 -1.20216Q12.0438 -1.15808 11.9894 -1.10843L12.9998 -0.000268616L11.9884 -1.10754Q11.6548 -0.802884 11.328 -0.392886Q11.1507 -0.170485 10.842 0.262442Q10.5229 0.709983 10.359 0.906235Q10.1231 1.18869 9.88714 1.37517Q9.28912 1.84779 8.2534 2.02041Q7.81852 2.09289 6.91823 2.25753Q5.5587 2.50614 4.8928 2.60462Q3.81809 2.76355 3.05417 2.78767Q2.2195 2.81402 1.67337 2.68836Q1.22316 2.58478 1.00901 2.39009Q0.899693 2.29071 0.773089 2.21457Q0.646485 2.13843 0.507459 2.08845Q0.368433 2.03847 0.222328 2.01657Q0.0762224 1.99467 -0.0713475 2.0017Q-0.218917 2.00872 -0.362281 2.04441Q-0.505644 2.08009 -0.639292 2.14305Q-0.77294 2.20602 -0.891735 2.29385Q-1.01053 2.38167 -1.10991 2.49099Q-1.20929 2.60031 -1.28543 2.72691Q-1.36157 2.85351 -1.41155 2.99254Q-1.46153 3.13157 -1.48343 3.27767Q-1.50533 3.42378 -1.4983 3.57135Q-1.49128 3.71892 -1.45559 3.86228Q-1.41991 4.00564 -1.35695 4.13929Q-1.29398 4.27294 -1.20615 4.39174Q-1.11833 4.51053 -1.00901 4.60991Q-0.214232 5.33243 1.00068 5.61197Q1.92563 5.82479 3.14884 5.78618Q4.08575 5.7566 5.33168 5.57234Q6.04813 5.46639 7.45789 5.20859Q8.33501 5.04819 8.7466 4.97959Q10.5437 4.68008 11.7473 3.72888Q12.2268 3.34989 12.6617 2.82912Q12.899 2.54494 13.2846 2.00414Q13.7592 1.33851 14.0106 1.10843L14.0116 1.10754Q14.066 1.05787 14.1152 1.00311Q14.1645 0.948355 14.2081 0.889036Q14.2518 0.829717 14.2894 0.766408Q14.3271 0.703098 14.3583 0.636406Q14.3896 0.569715 14.4141 0.500283Q14.4387 0.430851 14.4563 0.359347Q14.474 0.287843 14.4845 0.214955Q14.4951 0.142066 14.4984 0.0684943Q14.5018 -0.00507761 14.4979 -0.0786251Q14.4941 -0.152173 14.483 -0.224988Q14.472 -0.297804 14.4539 -0.369187Q14.4357 -0.44057 14.4107 -0.509834Q14.3857 -0.579098 14.354 -0.645577Q14.3223 -0.712055 14.2842 -0.775109Q14.2462 -0.838163 14.2021 -0.897185Q14.1581 -0.956208 14.1084 -1.01063Z " /><path  id="路径 17" style="stroke:#000000; stroke-width:3; stroke-opacity:1; stroke-dasharray:0 0" transform="translate(114 196)  rotate(0 6.5 2.146114710797961)" d="" /><path id="圆形 8" fill-rule="evenodd" fill="url(#linear_5)" transform="translate(112 232.5)  rotate(0 16.5 8)" opacity="1" d="M16.5,0C7.39,0 0,3.58 0,8C0,12.42 7.39,16 16.5,16C25.61,16 33,12.42 33,8C33,3.58 25.61,0 16.5,0Z " /><path id="圆形 8" fill-rule="evenodd" fill="url(#linear_6)" transform="translate(83 229.5)  rotate(0 11 5.333333333333333)" opacity="1" d="M11,0C4.92,0 0,2.39 0,5.33C0,8.28 4.92,10.67 11,10.67C17.08,10.67 22,8.28 22,5.33C22,2.39 17.08,0 11,0Z " /><path id="圆形 8" fill-rule="evenodd" fill="url(#linear_7)" transform="translate(47 232.5)  rotate(0 16.5 8)" opacity="1" d="M16.5,0C7.39,0 0,3.58 0,8C0,12.42 7.39,16 16.5,16C25.61,16 33,12.42 33,8C33,3.58 25.61,0 16.5,0Z " /><path id="圆形 5" fill-rule="evenodd" style="fill:#2A0E09" transform="translate(57 211.5)  rotate(0 7.5 12.5)" opacity="1" d="M7.5,0C3.36,0 0,5.6 0,12.5C0,19.4 3.36,25 7.5,25C11.64,25 15,19.4 15,12.5C15,5.6 11.64,0 7.5,0Z " /><path id="圆形 6" fill-rule="evenodd" style="fill:#2A0E09" transform="translate(116 211.5)  rotate(0 6 11.5)" opacity="1" d="M6,0C2.69,0 0,5.15 0,11.5C0,17.85 2.69,23 6,23C9.31,23 12,17.85 12,11.5C12,5.15 9.31,0 6,0Z " /><path id="圆形 7" fill-rule="evenodd" fill="url(#linear_8)" transform="translate(60 224.5)  rotate(0 4 6)" opacity="1" d="M4,0C1.79,0 0,2.69 0,6C0,9.31 1.79,12 4,12C6.21,12 8,9.31 8,6C8,2.69 6.21,0 4,0Z " /><path id="圆形 7" fill-rule="evenodd" fill="url(#linear_9)" transform="translate(118 220.5)  rotate(0 4 6)" opacity="1" d="M4,0C1.79,0 0,2.69 0,6C0,9.31 1.79,12 4,12C6.21,12 8,9.31 8,6C8,2.69 6.21,0 4,0Z " /><path id="圆形 2" fill-rule="evenodd" style="fill:#CC3F0C" transform="translate(83 258.5)  rotate(0 12 6)" opacity="1" d="M12,0C5.37,0 0,2.69 0,6C0,9.31 5.37,12 12,12C18.63,12 24,9.31 24,6C24,2.69 18.63,0 12,0Z " /><path  id="圆形 2" style="stroke:#A85D44; stroke-width:0.5; stroke-opacity:1; stroke-dasharray:0 0" transform="translate(83 258.5)  rotate(0 12 6)" d="M12,0C5.37,0 0,2.69 0,6C0,9.31 5.37,12 12,12C18.63,12 24,9.31 24,6C24,2.69 18.63,0 12,0Z " /><g opacity="1" transform="translate(40.97 277.5)  rotate(0 76.86124035695045 122.5)"><path id="路径 14"  style="fill:#000000" transform="translate(135.52988463922168 91.4011487557932)  rotate(0 2.75 8.549425622103405)" opacity="1" d="M1.35858 2.0888Q1.55531 2.11691 1.74785 2.06765Q1.94038 2.01839 2.09945 1.89926L2.1 1.9Q3.37345 0.944913 3.81879 1.00385Q3.97196 1.02413 4.12994 1.37958Q4.5 2.21221 4.5 4.1Q4.5 6.06792 3.91021 8.15901Q3.40041 9.96646 2.47775 11.7773Q1.70968 13.2846 0.742669 14.6339Q-0.039415 15.7251 -0.706534 16.3923L-0.707108 16.3917Q-0.776751 16.4614 -0.83147 16.5433Q-0.886189 16.6252 -0.92388 16.7162Q-0.961571 16.8072 -0.980786 16.9038Q-1 17.0004 -1 17.0989Q-1 17.1973 -0.980786 17.2939Q-0.961571 17.3905 -0.92388 17.4815Q-0.886189 17.5725 -0.83147 17.6544Q-0.776751 17.7363 -0.707108 17.806Q-0.566455 17.9466 -0.382684 18.0227Q-0.198912 18.0989 0 18.0989Q0.198701 18.0989 0.382307 18.0229Q0.565913 17.9469 0.70653 17.8065L0.707104 17.8071Q1.49036 17.0238 2.36827 15.799Q3.42319 14.3271 4.25975 12.6852Q5.27184 10.6989 5.83511 8.70193Q6.5 6.34458 6.5 4.1Q6.5 1.78778 5.95756 0.567299Q5.66079 -0.10044 5.19049 -0.491862Q4.70447 -0.896365 4.08121 -0.978855Q3.20735 -1.09451 2.16116 -0.537306Q1.66195 -0.271421 0.900551 0.299586L0.9 0.298851Q0.821207 0.357946 0.755456 0.431277Q0.689706 0.504608 0.639525 0.589357Q0.589345 0.674107 0.556662 0.767018Q0.523979 0.859928 0.51005 0.95743Q0.496122 1.05493 0.501482 1.15328Q0.506843 1.25162 0.531286 1.34703Q0.55573 1.44244 0.598318 1.53125Q0.640905 1.62006 0.7 1.69885Q0.819347 1.85798 0.990506 1.95933Q1.16167 2.06067 1.35858 2.0888Z " /><path  id="路径 14" style="stroke:#000000; stroke-width:2; stroke-opacity:1; stroke-dasharray:0 0" transform="translate(135.52988463922168 91.4011487557932)  rotate(0 2.75 8.549425622103405)" d="" /><path id="路径 15" fill-rule="evenodd" style="fill:#E1D3D1" transform="translate(8.029884639221663 32)  rotate(0 18.187622223479828 21.324138433155085)" opacity="1" d="M36.06,0C33.56,0 21.66,6.65 16.56,9.5C9.4,14.23 -5.44,27.5 2.06,36.5C9.56,45.5 16.56,42.35 19.56,41C25.45,28.7 38.56,0 36.06,0Z " /><path  id="路径 15" style="stroke:#000000; stroke-width:2; stroke-opacity:1; stroke-dasharray:0 0" transform="translate(8.029884639221663 32)  rotate(0 18.187622223479828 21.324138433155085)" d="M36.06,0C33.56,0 21.66,6.65 16.56,9.5C9.4,14.23 -5.44,27.5 2.06,36.5C9.56,45.5 16.56,42.35 19.56,41C25.45,28.7 38.56,0 36.06,0Z " /><path id="圆形 4" fill-rule="evenodd" style="fill:#62615F" transform="translate(78.02988463922166 0)  rotate(0 23 22.5)" opacity="1" d="M23,0C10.3,0 0,10.07 0,22.5C0,34.93 10.3,45 23,45C35.7,45 46,34.93 46,22.5C46,10.07 35.7,0 23,0Z " /><path  id="圆形 4" style="stroke:#000000; stroke-width:2; stroke-opacity:1; stroke-dasharray:0 0" transform="translate(78.02988463922166 0)  rotate(0 23 22.5)" d="M23,0C10.3,0 0,10.07 0,22.5C0,34.93 10.3,45 23,45C35.7,45 46,34.93 46,22.5C46,10.07 35.7,0 23,0Z " /><path id="路径 13" fill-rule="evenodd" style="fill:#62615E" transform="translate(16.37282195503674 12.82084485437099)  rotate(0 68.67482937943208 61.58957757281451)" opacity="1" d="M0.66,73.68C3.66,83.18 5.28,91.24 5.66,93.68L5.66,73.68L108.16,104.68C109.96,103.78 114.16,101.68 114.16,87.68C114.16,73.68 121.16,64.68 128.16,76.18C135.16,87.68 123.78,98.34 118.16,101.68L108.16,110.68L105.16,123.18C114.16,120.33 135.16,113.68 136.16,93.68C137.16,73.68 138.66,60.68 135.16,47.18C131.66,33.68 108.16,2.68 72.66,0.18C37.16,-2.32 14.89,21.99 9.16,32.68C5.71,42.13 -2.34,64.18 0.66,73.68Z " /><path  id="路径 13" style="stroke:#000000; stroke-width:2; stroke-opacity:1; stroke-dasharray:0 0" transform="translate(16.37282195503674 12.82084485437099)  rotate(0 68.67482937943208 61.58957757281451)" d="M0.66,73.68C3.66,83.18 5.28,91.24 5.66,93.68L5.66,73.68L108.16,104.68C109.96,103.78 114.16,101.68 114.16,87.68C114.16,73.68 121.16,64.68 128.16,76.18C135.16,87.68 123.78,98.34 118.16,101.68L108.16,110.68L105.16,123.18C114.16,120.33 135.16,113.68 136.16,93.68C137.16,73.68 138.66,60.68 135.16,47.18C131.66,33.68 108.16,2.68 72.66,0.18C37.16,-2.32 14.89,21.99 9.16,32.68C5.71,42.13 -2.34,64.18 0.66,73.68Z " /><path id="路径 10" fill-rule="evenodd" style="fill:#C0BDB8" transform="translate(24.029884639221663 34.5)  rotate(0 49.20101080516566 69)" opacity="1" d="M0,50C0,52.5 0.35,75.09 0.5,84.5C2.6,92.3 7.5,110.5 18.5,117C29.5,123.5 34.53,126.79 35.5,127.5L50,138L70.5,127.5C77.85,123.3 95,113.5 97.5,99.5C100,85.5 96.69,68.7 95,63C93.95,60.6 91.5,55 89,52.5C86.5,50 78.61,50.16 75.5,50.5C67.85,45.7 50,34.5 46,24C42,13.5 41.7,3.26 42,0C41.55,4.5 40.5,15 29.5,24C18.5,33 0,47.5 0,50Z " /><path  id="路径 10" style="stroke:#000000; stroke-width:2; stroke-opacity:1; stroke-dasharray:0 0" transform="translate(24.029884639221663 34.5)  rotate(0 49.20101080516566 69)" d="M0,50C0,52.5 0.35,75.09 0.5,84.5C2.6,92.3 7.5,110.5 18.5,117C29.5,123.5 34.53,126.79 35.5,127.5L50,138L70.5,127.5C77.85,123.3 95,113.5 97.5,99.5C100,85.5 96.69,68.7 95,63C93.95,60.6 91.5,55 89,52.5C86.5,50 78.61,50.16 75.5,50.5C67.85,45.7 50,34.5 46,24C42,13.5 41.7,3.26 42,0C41.55,4.5 40.5,15 29.5,24C18.5,33 0,47.5 0,50Z " /><path id="路径 9" fill-rule="evenodd" style="fill:#BDB4AD" transform="translate(59.52988463922166 161.5)  rotate(0 17.5 25)" opacity="1" d="M35 50L0 45.5L0 0C3.75 0.9 12.5 3 19.5 3C26.5 3 32.98 0.9 35 0L35 50Z" /><path  id="路径 9" style="stroke:#000000; stroke-width:2; stroke-opacity:1; stroke-dasharray:0 0" transform="translate(59.52988463922166 161.5)  rotate(0 17.5 25)" d="M35,30.5Z M0,45.5L35,50L35,30.5L35,0C32.98,0.9 26.5,3 19.5,3C12.5,3 3.75,0.9 0,0L0,16.5L0,45.5Z " /><path id="路径 8" fill-rule="evenodd" style="fill:#CAECF4" transform="translate(0 177.5)  rotate(0 57.514942319610846 33.75)" opacity="1" d="M115.03,67.5L115.03,35.5L99.53,13L92.53,16C89.75,17.13 81.03,19 72.03,16C63.03,13 60.58,3.9 59.53,0C45.95,8.59 12.53,31 5.53,40.5C-1.47,50 -0.07,62.25 0.53,67.5L115.03,67.5Z " /><path  id="路径 8" style="stroke:#000000; stroke-width:2; stroke-opacity:1; stroke-dasharray:0 0" transform="translate(0 177.5)  rotate(0 57.514942319610846 33.75)" d="M115.03,67.5L115.03,35.5L99.53,13L92.53,16C89.75,17.13 81.03,19 72.03,16C63.03,13 60.58,3.9 59.53,0C45.95,8.59 12.53,31 5.53,40.5C-1.47,50 -0.07,62.25 0.53,67.5L115.03,67.5Z " /><path id="圆形 2" fill-rule="evenodd" fill="url(#linear_10)" transform="translate(26.029884639221663 97)  rotate(0 12 10)" opacity="1" d="M12,0C5.37,0 0,4.48 0,10C0,15.52 5.37,20 12,20C18.63,20 24,15.52 24,10C24,4.48 18.63,0 12,0Z " /><path id="路径 11" fill-rule="evenodd" style="fill:#11100E" transform="translate(36.02988463922165 80.5)  rotate(0 26.316115702479344 10.822071482168305)" opacity="1" d="M10 18C6.5 22 4 20.5 2 18C0 15.5 0 8.85 0 6C0.26 4.2 2 0 6.5 0C11 0 13.5 14 10 18ZM52.5 19C52.5 22.5 45 22 43 20.5C41 19 42.4 9.90004 43 6C43.79 5.02 46.5 3 50 4C52.9592 4.84547 52.7016 12.4818 52.5513 16.9369C52.5239 17.7512 52.5 18.4592 52.5 19Z" /><path  id="路径 12" style="stroke:#000000; stroke-width:2; stroke-opacity:1; stroke-dasharray:0 0" transform="translate(55.50988463922167 133.89218749999986)  rotate(0 11.010000000000002 4.553906250000001)" d="M3.52,9.11C7.52,9.11 15.87,9.11 19.02,9.11C19.92,8.81 22.02,8.11 22.02,4.11C22.02,0.11 12.92,-0.19 9.02,0.11C0.02,-0.49 0.02,1.61 0.02,1.61C0.02,3.61 -0.48,9.11 3.52,9.11Z " /><path id="圆形 2" fill-rule="evenodd" fill="url(#linear_11)" transform="translate(76.02988463922166 97)  rotate(0 13 10)" opacity="1" d="M13,0C5.82,0 0,4.48 0,10C0,15.52 5.82,20 13,20C20.18,20 26,15.52 26,10C26,4.48 20.18,0 13,0Z " /></g><path id="路径 7" fill-rule="evenodd" style="fill:#FFFFFF" transform="translate(65 -4)  rotate(0 182 261.008653291973)" opacity="1" d="M45.47,522.02L72,516.5L94,516.5L119.5,473L120.5,460.5L123.5,445.5L131.5,431L143.5,427L147.5,421L147.5,391.5L156.5,371.5L172,337.5L197,290.5L200,277.5L206.5,272.5L218,254L230,238L236.5,216L265.5,167.5L278,157.5L299,124.5L303.5,157.5L290.5,189L308,157.5L303.5,140L303.5,121.5L308,140L312.5,140L308,109.5L312.5,101L330,81.5L330,71.5L336,63.5L336,60.5L364,22L361.5,0L312.5,0L308,38.5L271.5,71.5L274.5,94L284.5,101L243.5,182L206.5,209L225.5,209L218,228.5L206.5,254L188,272.5L172,297.5L151.5,312L147.5,321L143.5,325L143.5,343.5L135.5,350L135.5,387L128,394.5L131.5,405.5L123.5,427L109,437L72,456L0,501.12L94,456L86.5,480.5L81.5,469L72,469L75,480.5L78,496.5L45.47,522.02Z " /><path  id="路径 7" style="stroke:#FFFFFF; stroke-width:1; stroke-opacity:1; stroke-dasharray:0 0" transform="translate(65 -4)  rotate(0 182 261.008653291973)" d="M45.47,522.02L72,516.5L94,516.5L119.5,473L120.5,460.5L123.5,445.5L131.5,431L143.5,427L147.5,421L147.5,391.5L156.5,371.5L172,337.5L197,290.5L200,277.5L206.5,272.5L218,254L230,238L236.5,216L265.5,167.5L278,157.5L299,124.5L303.5,157.5L290.5,189L308,157.5L303.5,140L303.5,121.5L308,140L312.5,140L308,109.5L312.5,101L330,81.5L330,71.5L336,63.5L336,60.5L364,22L361.5,0L312.5,0L308,38.5L271.5,71.5L274.5,94L284.5,101L243.5,182L206.5,209L225.5,209L218,228.5L206.5,254L188,272.5L172,297.5L151.5,312L147.5,321L143.5,325L143.5,343.5L135.5,350L135.5,387L128,394.5L131.5,405.5L123.5,427L109,437L72,456L0,501.12L94,456L86.5,480.5L81.5,469L72,469L75,480.5L78,496.5L45.47,522.02Z " /></g></g></svg>