<svg xmlns="http://www.w3.org/2000/svg" xmlns:xlink="http://www.w3.org/1999/xlink" width="360" height="360" viewBox="0 0 360 360" fill="none"><defs><rect id="path_0" x="0" y="0" width="360" height="360" /><linearGradient id="linear_0" x1="16.435%" y1="0%" x2="76.45100000000001%" y2="86.738%" gradientUnits="objectBoundingBox"><stop offset="0" stop-color="#33FF63" stop-opacity="1" /><stop offset="1" stop-color="#056DFF" stop-opacity="1" /></linearGradient><filter id="filter_4" x="1" y="1" width="358" height="358" filterUnits="userSpaceOnUse" color-interpolation-filters="sRGB"><feFlood flood-opacity="0" result="BackgroundImageFix"/>
          <feColorMatrix in="SourceAlpha" type="matrix" values="0 0 0 0 0 0 0 0 0 0 0 0 0 0 0 0 0 0 127 0"/>
          <feOffset dx="0" dy="0"/>
          <feGaussianBlur stdDeviation="2"/>
          <feColorMatrix type="matrix" values="0 0 0 0 0 0 0 0 0 0 0 0 0 0 0 0 0 0 0.25 0"/>
          <feBlend mode="normal" in2="BackgroundImageFix" result="effect1_Shadow"/>
          <feBlend mode="normal" in="SourceGraphic" in2="effect1_Shadow" result="shape"/></filter><filter id="filter_6" x="28" y="28" width="304" height="304" filterUnits="userSpaceOnUse" color-interpolation-filters="sRGB"><feFlood flood-opacity="0" result="BackgroundImageFix"/>
          <feColorMatrix in="SourceAlpha" type="matrix" values="0 0 0 0 0 0 0 0 0 0 0 0 0 0 0 0 0 0 127 0"/>
          <feOffset dx="0" dy="0"/>
          <feGaussianBlur stdDeviation="2.5"/>
          <feColorMatrix type="matrix" values="0 0 0 0 0 0 0 0 0 0 0 0 0 0 0 0 0 0 0.25 0"/>
          <feBlend mode="normal" in2="BackgroundImageFix" result="effect1_Shadow"/>
          <feBlend mode="normal" in="SourceGraphic" in2="effect1_Shadow" result="shape"/></filter><linearGradient id="linear_1" x1="0%" y1="50%" x2="100%" y2="50%" gradientUnits="objectBoundingBox"><stop offset="0" stop-color="#00BFFF" stop-opacity="1" /><stop offset="1" stop-color="#529DF2" stop-opacity="1" /></linearGradient><filter id="filter_8" x="44.389825439639466" y="-10" width="325.6101745603605" height="325.71" filterUnits="userSpaceOnUse" color-interpolation-filters="sRGB"><feFlood flood-opacity="0" result="BackgroundImageFix"/>
          <feColorMatrix in="SourceAlpha" type="matrix" values="0 0 0 0 0 0 0 0 0 0 0 0 0 0 0 0 0 0 127 0"/>
          <feOffset dx="0" dy="0"/>
          <feGaussianBlur stdDeviation="5"/>
          <feColorMatrix type="matrix" values="0 0 0 0 0 0 0 0 0 0 0 0 0 0 0 0 0 0 0.25 0"/>
          <feBlend mode="normal" in2="BackgroundImageFix" result="effect1_Shadow"/>
          <feBlend mode="normal" in="SourceGraphic" in2="effect1_Shadow" result="shape"/></filter><linearGradient id="linear_2" x1="0%" y1="50%" x2="100%" y2="50%" gradientUnits="objectBoundingBox"><stop offset="0" stop-color="#3388FF" stop-opacity="1" /><stop offset="1" stop-color="#1071E0" stop-opacity="1" /></linearGradient><filter id="filter_12" x="-6" y="-6" width="250" height="250" filterUnits="userSpaceOnUse" color-interpolation-filters="sRGB"><feFlood flood-opacity="0" result="BackgroundImageFix"/>
          <feColorMatrix in="SourceAlpha" type="matrix" values="0 0 0 0 0 0 0 0 0 0 0 0 0 0 0 0 0 0 127 0"/>
          <feOffset dx="0" dy="0"/>
          <feGaussianBlur stdDeviation="3"/>
          <feColorMatrix type="matrix" values="0 0 0 0 0 0 0 0 0 0 0 0 0 0 0 0 0 0 0.25 0"/>
          <feBlend mode="normal" in2="BackgroundImageFix" result="effect1_Shadow"/>
          <feBlend mode="normal" in="SourceGraphic" in2="effect1_Shadow" result="shape"/></filter><linearGradient id="linear_3" x1="0%" y1="50%" x2="100%" y2="50%" gradientUnits="objectBoundingBox"><stop offset="0" stop-color="#FFEB3B" stop-opacity="1" /><stop offset="1" stop-color="#FFC300" stop-opacity="1" /></linearGradient><filter id="filter_16" x="49" y="-0.12904885623503137" width="201.4885409956771" height="190.12904885623504" filterUnits="userSpaceOnUse" color-interpolation-filters="sRGB"><feFlood flood-opacity="0" result="BackgroundImageFix"/>
          <feColorMatrix in="SourceAlpha" type="matrix" values="0 0 0 0 0 0 0 0 0 0 0 0 0 0 0 0 0 0 127 0"/>
          <feOffset dx="0" dy="0"/>
          <feGaussianBlur stdDeviation="3.5"/>
          <feColorMatrix type="matrix" values="0 0 0 0 0 0 0 0 0 0 0 0 0 0 0 0 0 0 0.25 0"/>
          <feBlend mode="normal" in2="BackgroundImageFix" result="effect1_Shadow"/>
          <feBlend mode="normal" in="SourceGraphic" in2="effect1_Shadow" result="shape"/></filter><filter id="filter_18" x="85.83551439710149" y="75.157275019996" width="68.62716289931433" height="88.45813038540939" filterUnits="userSpaceOnUse" color-interpolation-filters="sRGB"><feFlood flood-opacity="0" result="BackgroundImageFix"/>
          <feColorMatrix in="SourceAlpha" type="matrix" values="0 0 0 0 0 0 0 0 0 0 0 0 0 0 0 0 0 0 127 0"/>
          <feOffset dx="0" dy="0"/>
          <feGaussianBlur stdDeviation="3.5"/>
          <feColorMatrix type="matrix" values="0 0 0 0 0 0 0 0 0 0 0 0 0 0 0 0 0 0 0.25 0"/>
          <feBlend mode="normal" in2="BackgroundImageFix" result="effect1_Shadow"/>
          <feBlend mode="normal" in="SourceGraphic" in2="effect1_Shadow" result="shape"/></filter></defs><g opacity="1" transform="translate(0 0)  rotate(0 180 180)"><mask id="bg-mask-0" fill="white"><use xlink:href="#path_0"></use></mask><g mask="url(#bg-mask-0)" ><path id="路径" fill-rule="evenodd" style="fill:#FFFFFF" transform="translate(0 0)  rotate(0 180 180)" opacity="1" d="M0,180C0,279.4 80.6,360 180,360C279.4,360 360,279.4 360,180C360,80.6 279.4,0 180,0C80.6,0 0,80.6 0,180Z " /><g id="路径" filter="url(#filter_4)"><path id="路径" fill-rule="evenodd" fill="url(#linear_0)" transform="translate(5 5)  rotate(0 175 175)" opacity="1" d="M0,175C0,271.64 78.36,350 175,350C271.64,350 350,271.64 350,175C350,78.36 271.64,0 175,0C78.36,0 0,78.36 0,175Z " /></g><g id="路径" filter="url(#filter_6)"><path id="路径" fill-rule="evenodd" style="fill:#33A6F2" transform="translate(33 33)  rotate(0 147 147)" opacity="1" d="M0,147C0,228.2 65.8,294 147,294C228.2,294 294,228.2 294,147C294,65.8 228.2,0 147,0C65.8,0 0,65.8 0,147Z " /></g><g id="路径" filter="url(#filter_8)"><path id="路径" fill-rule="evenodd" fill="url(#linear_1)" transform="translate(54.389825439639466 0)  rotate(0 152.80508728018026 152.855)" opacity="1" d="M194.49,13.7C172.64,4.65 149.26,0 125.61,0C101.98,0 78.57,4.65 56.72,13.7C36.12,22.23 17.3,34.51 1.19,49.92C0.43,50.66 0,52.73 0,52.73C0,53.8 1.16,55.55 1.16,55.55L125.61,180L250.2,304.61C250.2,304.61 251.88,305.71 252.89,305.71C252.89,305.71 254.85,305.28 255.55,304.58C271.02,288.44 283.36,269.54 291.92,248.88C300.96,227.05 305.61,203.63 305.61,180C305.61,156.37 300.96,132.95 291.92,111.13C282.87,89.27 269.61,69.43 252.89,52.73C236.18,36.01 216.34,22.74 194.49,13.7Z " /></g><g opacity="1" transform="translate(59 60)  rotate(0 126.25000000000001 119)"><g id="路径" filter="url(#filter_12)"><path id="路径" fill-rule="evenodd" fill="url(#linear_2)" transform="translate(0 0)  rotate(0 119 119)" opacity="1" d="M0,119C0,184.71 53.29,238 119,238C184.71,238 238,184.71 238,119C238,53.29 184.71,0 119,0C53.29,0 0,53.29 0,119Z " /></g><path id="路径" fill-rule="evenodd" style="fill:#005BB0" transform="translate(29 28)  rotate(0 90.5 90.5)" opacity="1" d="M0,90.5C0,140.47 40.53,181 90.5,181C140.47,181 181,140.47 181,90.5C181,40.53 140.47,0 90.5,0C40.53,0 0,40.53 0,90.5Z " /><g id="路径" filter="url(#filter_16)"><path id="路径" fill-rule="evenodd" fill="url(#linear_3)" transform="translate(56 6.870951143764969)  rotate(0 93.74427049783856 88.06452442811752)" opacity="1" d="M180.79 0.57C181.566 0.201224 181.977 0.00447821 181.976 0.00283243C181.975 0.0011709 181.555 0.198362 180.666 0.618143C180.593 0.648094 180.52 0.682046 180.45 0.72L180.666 0.618143C180.708 0.600745 180.75 0.584697 180.79 0.57ZM180.79 0.57C169.43 5.97 79.47 48.14 64.01 48.14C28.65 48.14 0 76.77 0 112.12C0 147.47 28.65 176.13 64.01 176.13C99.35 176.13 128 147.47 128 112.12C128 98.67 167.73 36.69 186.68 7.89C187.88 6.04 187.73 3.61 186.29 1.96C184.91 0.36 182.72 -0.17 180.79 0.57Z" /></g><g id="路径" filter="url(#filter_18)"><path id="路径" fill-rule="evenodd" style="fill:#FFFFFF" transform="translate(92.83551439710149 82.157275019996)  rotate(0 27.313581449657164 37.2290651927047)" opacity="1" d="M54.63,46.26C54.67,45.32 54.26,44.41 53.51,43.81L35.27,29.17C34.29,28.38 33.91,27.08 34.29,25.89L41.4,3.91C41.78,2.68 41.35,1.34 40.31,0.58C39.28,-0.18 37.86,-0.19 36.81,0.54L1.26,25.67C0.51,26.2 0.05,27.04 0.01,27.96C-0.04,28.88 0.32,29.76 1.02,30.37L17.7,45.06C18.6,45.84 18.93,47.06 18.6,48.19L11.7,70.57C11.31,71.79 11.76,73.11 12.78,73.87C13.8,74.63 15.2,74.65 16.26,73.93L53.33,48.62C54.1,48.09 54.59,47.21 54.63,46.26Z " /></g></g></g></g></svg>